<?xml version="1.0" encoding="UTF-8"?>
<svg width="1267px" height="500px" viewBox="0 0 1267 500" version="1.1" xmlns="http://www.w3.org/2000/svg" xmlns:xlink="http://www.w3.org/1999/xlink">
    <!-- Generator: Sketch 41.2 (35397) - http://www.bohemiancoding.com/sketch -->
    <title>Group 4</title>
    <desc>Created with Sketch.</desc>
    <defs></defs>
    <g id="Logo-Copy-2" stroke="none" stroke-width="1" fill="none" fill-rule="evenodd">
        <g id="Group-4">
            <g id="Group" transform="translate(0.000000, 257.652499)">
                <path d="M104.702555,121.228804 C104.702555,102.77253 107.932088,86.1044567 114.39125,71.2240853 C120.850413,56.3437139 129.616288,43.5975405 140.689138,32.9851826 C151.761988,22.3728247 164.68012,14.2406507 179.44392,8.58841665 C194.207721,2.93618256 209.894023,0.110107906 226.503299,0.110107906 C239.652308,0.110107906 251.359365,1.37895775 261.62482,3.9166955 C271.890275,6.45443326 280.71382,9.3381829 288.09572,12.568031 C296.631042,16.2592859 304.012832,20.2965354 310.24131,24.6799006 L273.908702,88.6997829 C270.217752,85.9313417 266.180836,83.2782921 261.797832,80.7405543 C257.876198,78.8949269 253.204909,77.1070021 247.783826,75.3767263 C242.362743,73.6464506 236.192029,72.7813257 229.271497,72.7813257 C222.120282,72.7813257 215.545875,74.0501755 209.548081,76.5879133 C203.550288,79.1256511 198.302297,82.5861506 193.803951,86.9695158 C189.305606,91.3528811 185.787722,96.4859554 183.250194,102.368893 C180.712665,108.25183 179.44392,114.538405 179.44392,121.228804 C179.44392,127.919204 180.770336,134.205778 183.423206,140.088716 C186.076076,145.971653 189.709301,151.104727 194.322988,155.488093 C198.936676,159.871458 204.357678,163.331957 210.586156,165.869695 C216.814634,168.407433 223.619721,169.676283 231.001622,169.676283 C238.383522,169.676283 244.957928,168.753483 250.725038,166.907855 C256.492147,165.062228 261.336446,162.985928 265.258081,160.678894 C269.871768,158.141156 273.908685,155.142057 277.36895,151.681505 L313.701559,215.701387 C307.47308,220.776863 300.091291,225.275512 291.555969,229.197471 C284.174069,232.427319 275.292853,235.426418 264.912056,238.19486 C254.531259,240.963301 242.651191,242.347501 229.271497,242.347501 C211.278116,242.347501 194.669089,239.406076 179.44392,233.523138 C164.218751,227.640201 151.069939,219.392677 139.997088,208.780319 C128.924238,198.167961 120.273704,185.421788 114.045225,170.541416 C107.816747,155.661045 104.702555,139.223672 104.702555,121.228804 Z M339.653423,5.64696259 L413.356714,5.64696259 L413.356714,84.2010885 L454.53367,84.2010885 L454.53367,5.64696259 L528.582986,5.64696259 L528.582986,236.464592 L454.53367,236.464592 L454.53367,150.989398 L413.356714,150.989398 L413.356714,236.464592 L339.653423,236.464592 L339.653423,5.64696259 Z M638.618887,5.64696259 L693.982861,5.64696259 L781.527146,236.464592 L708.861929,236.464592 L701.249383,215.701387 L631.352365,215.701387 L623.739818,236.464592 L551.074602,236.464592 L638.618887,5.64696259 Z M681.871992,164.831535 L666.300874,124.343285 L650.729756,164.831535 L681.871992,164.831535 Z M804.018762,5.64696259 L864.919134,5.64696259 L925.127456,94.2366376 L984.989753,5.64696259 L1045.89013,5.64696259 L1045.89013,236.464592 L972.186834,236.464592 L972.186834,153.411772 L925.127456,222.622456 L877.722053,153.411772 L877.722053,236.464592 L804.018762,236.464592 L804.018762,5.64696259 Z M1267,93.5445308 C1267,109.463068 1264.23183,123.016691 1258.6954,134.205807 C1253.15898,145.394924 1245.60418,154.449898 1236.03078,161.371001 C1226.45737,168.292104 1215.26935,173.367503 1202.46637,176.597351 C1189.66338,179.827199 1175.8802,181.442099 1161.1164,181.442099 L1161.1164,236.464592 L1087.41311,236.464592 L1087.41311,5.64696259 L1161.1164,5.64696259 C1175.8802,5.64696259 1189.66338,7.2618624 1202.46637,10.4917104 C1215.26935,13.7215585 1226.45737,18.7969579 1236.03078,25.7180608 C1245.60418,32.6391638 1253.15898,41.6941377 1258.6954,52.8832542 C1264.23183,64.0723706 1267,77.625994 1267,93.5445308 Z M1161.1164,119.152484 L1164.23062,119.152484 C1173.91937,119.152484 1180.89746,116.903159 1185.16513,112.404442 C1189.43279,107.905725 1191.56658,101.619151 1191.56658,93.5445308 C1191.56658,85.4699107 1189.43279,79.1833364 1185.16513,74.6846195 C1180.89746,70.1859026 1173.91937,67.9365778 1164.23062,67.9365778 L1161.1164,67.9365778 L1161.1164,119.152484 Z" id="CHAMP" fill="#DA1D1D"></path>
                <g id="Group-2" fill="#FBFBFB">
                    <path d="M36.9146999,27.6059463 L136.488031,41.4799008 L151.875648,81.4989895 L151.962109,95.7594562 L18.5006405,75.9072425 L15.7891036,58.7856267 L21.8579679,37.6770148 L36.9146999,27.6059463 Z M14.2779852,83.5301886 L158.785849,104.56069 L164.465916,117.569128 L158.396603,156.960941 L16.1494568,141.062405 L1.59834706,126.897109 L0.0128877164,98.5999207 L14.2779852,83.5301886 Z M17.9162242,149.932653 L151.998596,164.562458 L146.239736,201.343067 L27.2024235,197.140275 L13.5976264,182.093075 L10.4876339,162.455468 L17.9162242,149.932653 Z M33.2068039,205.339287 L137.849875,207.796076 L135.719396,228.629776 L54.073841,234.242322 L40.3997313,230.186225 L32.5581756,214.958138 L33.2068039,205.339287 Z M62.1003347,24.3485585 L83.6116192,7.03302032 L164.324724,0.104158095 L205.308752,46.3169005 L207.969667,90.5479194 L195.866059,107.837301 L169.112113,108.049072 L142.70254,35.0054623 L62.1003347,24.3485585 Z" id="Combined-Shape"></path>
                </g>
            </g>
            <path d="M10.1289538,5.53685469 L146.113515,5.53685469 L146.113515,66.0962029 L83.83051,66.0962029 L83.83051,91.7041558 L145.075465,91.7041558 L145.075465,149.149023 L83.83051,149.149023 L83.83051,236.354485 L10.1289538,236.354485 L10.1289538,5.53685469 Z M170.127074,5.53685469 L248.326847,5.53685469 L248.326847,236.354485 L170.127074,236.354485 L170.127074,5.53685469 Z M424.587752,84.0909806 C420.435531,80.3997257 415.245332,77.573651 409.017001,75.6126718 C402.788669,73.6516927 396.675769,72.6712178 390.678116,72.6712178 C383.988426,72.6712178 377.875526,73.8823926 372.339231,76.3047787 C366.802936,78.7271647 362.01642,82.0723143 357.979538,86.3403278 C353.942656,90.6083413 350.770868,95.7414157 348.464079,101.739705 C346.157289,107.737994 345.003912,114.197593 345.003912,121.118696 C345.003912,128.039799 346.272627,134.499398 348.810096,140.497688 C351.347564,146.495977 354.807696,151.629051 359.190597,155.897065 C363.573497,160.165078 368.706026,163.510228 374.58834,165.932614 C380.470653,168.355 386.75656,169.566175 393.446249,169.566175 C401.289334,169.566175 408.440274,167.8936 414.899285,164.5484 C421.358295,161.203201 426.894507,156.646876 431.508086,150.87929 L410.747084,150.87929 L410.747084,102.431812 L499.673375,102.431812 L499.673375,179.255671 C494.367759,188.714511 488.024183,197.308085 480.642457,205.03665 C473.26073,212.765215 465.014082,219.397839 455.902263,224.934722 C446.790445,230.471604 436.929067,234.739554 426.317836,237.738698 C415.706604,240.737843 404.749518,242.237393 393.446249,242.237393 C376.837365,242.237393 361.151432,239.122943 346.387979,232.89395 C331.624526,226.664958 318.764367,218.129059 307.807117,207.285997 C296.849867,196.442936 288.199536,183.639088 281.855865,168.874068 C275.512194,154.109048 272.340406,138.19075 272.340406,121.118696 C272.340406,104.508049 275.339187,88.8204511 281.33684,74.0554315 C287.334493,59.2904118 295.581141,46.4288884 306.077034,35.4704754 C316.572926,24.5120623 329.029402,15.8608134 343.446837,9.516469 C357.864271,3.17212461 373.377198,0 389.986083,0 C402.904104,0 414.091865,1.26884984 423.549702,3.8065876 C433.007539,6.34432535 440.965843,9.228075 447.424854,12.4579231 C455.037259,16.149178 461.380835,20.1864275 466.455772,24.5697927 L424.587752,84.0909806 Z M523.686934,5.53685469 L597.38849,5.53685469 L597.38849,84.0909806 L638.564477,84.0909806 L638.564477,5.53685469 L712.61205,5.53685469 L712.61205,236.354485 L638.564477,236.354485 L638.564477,150.87929 L597.38849,150.87929 L597.38849,236.354485 L523.686934,236.354485 L523.686934,5.53685469 Z M772.265328,66.0962029 L729.705275,66.0962029 L729.705275,5.53685469 L890.949055,5.53685469 L890.949055,66.0962029 L848.389001,66.0962029 L848.389001,236.354485 L772.265328,236.354485 L772.265328,66.0962029 Z M908.04228,5.53685469 L1044.02684,5.53685469 L1044.02684,66.0962029 L981.743836,66.0962029 L981.743836,91.7041558 L1042.98879,91.7041558 L1042.98879,149.149023 L981.743836,149.149023 L981.743836,175.795136 L1046.44896,175.795136 L1046.44896,236.354485 L908.04228,236.354485 L908.04228,5.53685469 Z M1072.1926,5.53685469 L1151.77644,5.53685469 C1166.53989,5.53685469 1180.20742,7.49780445 1192.77942,11.4197628 C1205.35142,15.3417211 1216.25084,21.1092204 1225.478,28.7224337 C1234.70515,36.335647 1241.91376,45.7366708 1247.10404,56.9257873 C1252.29432,68.1149037 1254.88942,80.9764272 1254.88942,95.5107434 C1254.88942,107.045915 1253.27469,116.850664 1250.04518,124.925284 C1246.81568,132.999904 1243.24021,139.690203 1239.31866,144.996382 C1234.70509,150.994671 1229.51489,156.070071 1223.74791,160.222733 L1267,236.354485 L1180.49583,236.354485 L1145.89416,177.871457 L1145.89416,236.354485 L1072.1926,236.354485 L1072.1926,5.53685469 Z M1145.89416,119.042376 L1149.70034,119.042376 C1158.46614,119.042376 1165.90542,117.081426 1172.01842,113.159468 C1178.13141,109.237509 1181.18786,102.66256 1181.18786,93.4344229 C1181.18786,84.2062856 1178.13141,77.6313364 1172.01842,73.709378 C1165.90542,69.7874197 1158.46614,67.8264699 1149.70034,67.8264699 L1145.89416,67.8264699 L1145.89416,119.042376 Z" id="FIGHTER" fill="#FBFBFB"></path>
        </g>
    </g>
</svg>