<?xml version="1.0" encoding="UTF-8"?>
<svg width="1267px" height="500px" viewBox="0 0 1267 500" version="1.1" xmlns="http://www.w3.org/2000/svg" xmlns:xlink="http://www.w3.org/1999/xlink">
    <!-- Generator: Sketch 41.2 (35397) - http://www.bohemiancoding.com/sketch -->
    <title>Group 4 Copy 2</title>
    <desc>Created with Sketch.</desc>
    <defs></defs>
    <g id="Logo-Copy-2" stroke="none" stroke-width="1" fill="none" fill-rule="evenodd">
        <g id="Group-4-Copy-2">
            <g id="Group" transform="translate(0.000000, 257.523738)">
                <path d="M104.702555,121.16822 C104.702555,102.721169 107.932088,86.061426 114.39125,71.1884911 C120.850413,56.3155562 129.616288,43.5757526 140.689138,32.9686983 C151.761988,22.3616439 164.68012,14.233534 179.44392,8.58412459 C194.207721,2.9347152 209.894023,0.110052879 226.503299,0.110052879 C239.652308,0.110052879 251.359365,1.37826862 261.62482,3.91473814 C271.890275,6.45120766 280.71382,9.33351615 288.09572,12.5617501 C296.631042,16.2511603 304.012832,20.2863922 310.24131,24.6675668 L273.908702,88.6554552 C270.217752,85.8883975 266.180836,83.2366737 261.797832,80.7002042 C257.876198,78.8554991 253.204909,77.0684678 247.783826,75.3390568 C242.362743,73.6096458 236.192029,72.7449532 229.271497,72.7449532 C222.120282,72.7449532 215.545875,74.013169 209.548081,76.5496385 C203.550288,79.086108 198.302297,82.5448782 193.803951,86.9260528 C189.305606,91.3072274 185.787722,96.4377366 183.250194,102.317734 C180.712665,108.197732 179.44392,114.481164 179.44392,121.16822 C179.44392,127.855276 180.770336,134.138709 183.423206,140.018706 C186.076076,145.898704 189.709301,151.029213 194.322988,155.410387 C198.936676,159.791562 204.357678,163.250332 210.586156,165.786802 C216.814634,168.323271 223.619721,169.591487 231.001622,169.591487 C238.383522,169.591487 244.957928,168.669148 250.725038,166.824443 C256.492147,164.979738 261.336446,162.904476 265.258081,160.598595 C269.871768,158.062125 273.908685,155.064524 277.36895,151.605702 L313.701559,215.593591 C307.47308,220.66653 300.091291,225.162931 291.555969,229.082929 C284.174069,232.311163 275.292853,235.308764 264.912056,238.075822 C254.531259,240.842879 242.651191,242.226387 229.271497,242.226387 C211.278116,242.226387 194.669089,239.286433 179.44392,233.406435 C164.218751,227.526438 151.069939,219.283035 139.997088,208.675981 C128.924238,198.068927 120.273704,185.329123 114.045225,170.456188 C107.816747,155.583253 104.702555,139.154095 104.702555,121.16822 Z M339.653423,5.64414052 L413.356714,5.64414052 L413.356714,84.159009 L454.53367,84.159009 L454.53367,5.64414052 L528.582986,5.64414052 L528.582986,236.346419 L454.53367,236.346419 L454.53367,150.913941 L413.356714,150.913941 L413.356714,236.346419 L339.653423,236.346419 L339.653423,5.64414052 Z M638.618887,5.64414052 L693.982861,5.64414052 L781.527146,236.346419 L708.861929,236.346419 L701.249383,215.593591 L631.352365,215.593591 L623.739818,236.346419 L551.074602,236.346419 L638.618887,5.64414052 Z M681.871992,164.74916 L666.300874,124.281144 L650.729756,164.74916 L681.871992,164.74916 Z M804.018762,5.64414052 L864.919134,5.64414052 L925.127456,94.1895428 L984.989753,5.64414052 L1045.89013,5.64414052 L1045.89013,236.346419 L972.186834,236.346419 L972.186834,153.335105 L925.127456,222.5112 L877.722053,153.335105 L877.722053,236.346419 L804.018762,236.346419 L804.018762,5.64414052 Z M1267,93.4977819 C1267,109.408363 1264.23183,122.955213 1258.6954,134.138738 C1253.15898,145.322263 1245.60418,154.372711 1236.03078,161.290356 C1226.45737,168.208 1215.26935,173.280863 1202.46637,176.509097 C1189.66338,179.737331 1175.8802,181.351423 1161.1164,181.351423 L1161.1164,236.346419 L1087.41311,236.346419 L1087.41311,5.64414052 L1161.1164,5.64414052 C1175.8802,5.64414052 1189.66338,7.25823328 1202.46637,10.4864672 C1215.26935,13.7147011 1226.45737,18.7875641 1236.03078,25.7052082 C1245.60418,32.6228524 1253.15898,41.673301 1258.6954,52.8568257 C1264.23183,64.0403504 1267,77.5872004 1267,93.4977819 Z M1161.1164,119.092937 L1164.23062,119.092937 C1173.91937,119.092937 1180.89746,116.844737 1185.16513,112.348268 C1189.43279,107.851799 1191.56658,101.568367 1191.56658,93.4977819 C1191.56658,85.4271971 1189.43279,79.1437645 1185.16513,74.6472959 C1180.89746,70.1508272 1173.91937,67.9026265 1164.23062,67.9026265 L1161.1164,67.9026265 L1161.1164,119.092937 Z" id="CHAMP" fill="#292727"></path>
                <g id="Group-2" fill="#FBFBFB">
                    <path d="M36.9146999,27.5921502 L136.488031,41.4591712 L151.875648,81.4582604 L151.962109,95.7116004 L18.5006405,75.8693078 L15.7891036,58.7562486 L21.8579679,37.6581857 L36.9146999,27.5921502 Z M14.2779852,83.4884444 L158.785849,104.508436 L164.465916,117.510372 L158.396603,156.8825 L16.1494568,140.991909 L1.59834706,126.833692 L0.0128877164,98.5506454 L14.2779852,83.4884444 Z M17.9162242,149.857725 L151.998596,164.480218 L146.239736,201.242446 L27.2024235,197.041754 L13.5976264,182.002074 L10.4876339,162.374281 L17.9162242,149.857725 Z M33.2068039,205.236669 L137.849875,207.69223 L135.719396,228.515518 L54.073841,234.125259 L40.3997313,230.07119 L32.5581756,214.850713 L33.2068039,205.236669 Z M62.1003347,24.3363903 L83.6116192,7.02950557 L164.324724,0.104106042 L205.308752,46.2937536 L207.969667,90.5026681 L195.866059,107.78341 L169.112113,107.995074 L142.70254,34.9879683 L62.1003347,24.3363903 Z" id="Combined-Shape"></path>
                </g>
            </g>
            <path d="M10.1289538,5.53408765 L146.113515,5.53408765 L146.113515,66.0631713 L83.83051,66.0631713 L83.83051,91.6583266 L145.075465,91.6583266 L145.075465,149.074486 L83.83051,149.074486 L83.83051,236.236366 L10.1289538,236.236366 L10.1289538,5.53408765 Z M170.127074,5.53408765 L248.326847,5.53408765 L248.326847,236.236366 L170.127074,236.236366 L170.127074,5.53408765 Z M424.587752,84.0489561 C420.435531,80.3595459 415.245332,77.5348836 409.017001,75.5748844 C402.788669,73.6148852 396.675769,72.6349003 390.678116,72.6349003 C383.988426,72.6349003 377.875526,73.8454699 372.339231,76.2666454 C366.802936,78.6878208 362.01642,82.0312987 357.979538,86.2971792 C353.942656,90.5630598 350.770868,95.6935689 348.464079,101.68886 C346.157289,107.684152 345.003912,114.140523 345.003912,121.058167 C345.003912,127.975811 346.272627,134.432182 348.810096,140.427474 C351.347564,146.422766 354.807696,151.553275 359.190597,155.819155 C363.573497,160.085036 368.706026,163.428514 374.58834,165.849689 C380.470653,168.270865 386.75656,169.481434 393.446249,169.481434 C401.289334,169.481434 408.440274,167.809695 414.899285,164.466167 C421.358295,161.122639 426.894507,156.568592 431.508086,150.803888 L410.747084,150.803888 L410.747084,102.380621 L499.673375,102.380621 L499.673375,179.166088 C494.367759,188.620201 488.024183,197.20948 480.642457,204.934183 C473.26073,212.658886 465.014082,219.288195 455.902263,224.822311 C446.790445,230.356426 436.929067,234.622242 426.317836,237.619888 C415.706604,240.617534 404.749518,242.116334 393.446249,242.116334 C376.837365,242.116334 361.151432,239.003441 346.387979,232.777562 C331.624526,226.551682 318.764367,218.020049 307.807117,207.182406 C296.849867,196.344764 288.199536,183.547314 281.855865,168.789673 C275.512194,154.032032 272.340406,138.121689 272.340406,121.058167 C272.340406,104.455821 275.339187,88.7760631 281.33684,74.0184223 C287.334493,59.2607814 295.581141,46.4056855 306.077034,35.452749 C316.572926,24.4998124 329.029402,15.8528869 343.446837,9.51171314 C357.864271,3.17053934 373.377198,0 389.986083,0 C402.904104,0 414.091865,1.26821574 423.549702,3.80468526 C433.007539,6.34115478 440.965843,9.22346327 447.424854,12.4516972 C455.037259,16.1411074 461.380835,20.1763393 466.455772,24.5575139 L424.587752,84.0489561 Z M523.686934,5.53408765 L597.38849,5.53408765 L597.38849,84.0489561 L638.564477,84.0489561 L638.564477,5.53408765 L712.61205,5.53408765 L712.61205,236.236366 L638.564477,236.236366 L638.564477,150.803888 L597.38849,150.803888 L597.38849,236.236366 L523.686934,236.236366 L523.686934,5.53408765 Z M772.265328,66.0631713 L729.705275,66.0631713 L729.705275,5.53408765 L890.949055,5.53408765 L890.949055,66.0631713 L848.389001,66.0631713 L848.389001,236.236366 L772.265328,236.236366 L772.265328,66.0631713 Z M908.04228,5.53408765 L1044.02684,5.53408765 L1044.02684,66.0631713 L981.743836,66.0631713 L981.743836,91.6583266 L1042.98879,91.6583266 L1042.98879,149.074486 L981.743836,149.074486 L981.743836,175.707283 L1046.44896,175.707283 L1046.44896,236.236366 L908.04228,236.236366 L908.04228,5.53408765 Z M1072.1926,5.53408765 L1151.77644,5.53408765 C1166.53989,5.53408765 1180.20742,7.49405742 1192.77942,11.4140558 C1205.35142,15.3340541 1216.25084,21.0986711 1225.478,28.7080797 C1234.70515,36.3174882 1241.91376,45.7138139 1247.10404,56.8973386 C1252.29432,68.0808633 1254.88942,80.9359592 1254.88942,95.4630119 C1254.88942,106.992419 1253.27469,116.792268 1250.04518,124.862852 C1246.81568,132.933437 1243.24021,139.620393 1239.31866,144.92392 C1234.70509,150.919212 1229.51489,155.992075 1223.74791,160.142661 L1267,236.236366 L1180.49583,236.236366 L1145.89416,177.782566 L1145.89416,236.236366 L1072.1926,236.236366 L1072.1926,5.53408765 Z M1145.89416,118.982884 L1149.70034,118.982884 C1158.46614,118.982884 1165.90542,117.022915 1172.01842,113.102916 C1178.13141,109.182918 1181.18786,102.611255 1181.18786,93.387729 C1181.18786,84.1642035 1178.13141,77.5925401 1172.01842,73.6725418 C1165.90542,69.7525434 1158.46614,67.7925737 1149.70034,67.7925737 L1145.89416,67.7925737 L1145.89416,118.982884 Z" id="FIGHTER" fill="#FBFBFB"></path>
        </g>
    </g>
</svg>