<?xml version="1.0" encoding="iso-8859-1"?>
<!-- Generator: Adobe Illustrator 19.0.0, SVG Export Plug-In . SVG Version: 6.00 Build 0)  -->
<svg xmlns="http://www.w3.org/2000/svg" xmlns:xlink="http://www.w3.org/1999/xlink" version="1.1" id="Layer_1" x="0px" y="0px" viewBox="0 0 511.994 511.994" style="enable-background:new 0 0 511.994 511.994;" xml:space="preserve" width="512px" height="512px">
<g>
	<g>
		<g>
			<path d="M476.933,159.986c-46.312-1.18-90.905-16.679-128.999-44.82l-0.062-0.055c-26.813-19.475-58.579-29.772-91.875-29.772     c-33.163,0-64.937,10.344-91.874,29.914l-0.07,0.055c-37.944,28.047-82.546,43.492-128.998,44.679     C15.711,160.065,0,175.979,0,195.533V316.47c0,19.562,15.711,35.467,35.055,35.561c46.319,1.172,90.921,16.672,128.998,44.812     l0.07,0.062c26.797,19.469,58.57,29.75,91.874,29.75c33.187,0,64.937-10.344,91.874-29.906l0.062-0.047     c37.938-28.047,82.562-43.484,128.999-44.672c19.343-0.094,35.062-15.998,35.062-35.561V195.533     C511.994,175.978,496.275,160.064,476.933,159.986z M476.792,330.689h-0.266c-50.874,1.281-99.718,18.154-141.218,48.826     c-23.266,16.891-50.687,25.828-79.312,25.828c-28.757,0-56.179-8.875-79.304-25.688c-41.64-30.75-90.476-47.686-141.225-48.967     h-0.266c-7.648,0-13.867-6.375-13.867-14.219V195.533c0-7.835,6.219-14.21,13.867-14.21l0.266-0.008     c50.882-1.273,99.726-18.156,141.24-48.828c23.258-16.891,50.672-25.82,79.288-25.82c28.75,0,56.171,8.883,79.312,25.688     c41.641,30.765,90.469,47.695,141.218,48.96l0.266,0.008c7.64,0,13.858,6.375,13.858,14.21V316.47h0.001     C490.65,324.314,484.431,330.689,476.792,330.689z" fill="#FFDA44"/>
			<path d="M255.997,128.002c-70.577,0-127.998,57.421-127.998,127.999s57.421,127.998,127.998,127.998     s127.999-57.42,127.999-127.998C383.996,185.424,326.574,128.002,255.997,128.002z M255.997,362.655     c-58.819,0-106.663-47.842-106.663-106.654c0-58.812,47.844-106.663,106.663-106.663c58.812,0,106.655,47.851,106.655,106.663     C362.652,314.813,314.809,362.655,255.997,362.655z" fill="#FFDA44"/>
			<path d="M74.663,224.001c-17.641,0-31.999,14.352-31.999,32c0,17.656,14.358,32,31.999,32c17.648,0,32-14.344,32-32     C106.663,238.353,92.311,224.001,74.663,224.001z M74.663,266.665c-5.875,0-10.664-4.781-10.664-10.664     s4.789-10.664,10.664-10.664c5.883,0,10.672,4.781,10.672,10.664S80.546,266.665,74.663,266.665z" fill="#FFDA44"/>
			<path d="M437.339,224.001c-17.655,0-31.999,14.352-31.999,32c0,17.656,14.344,32,31.999,32c17.625,0,32-14.344,32-32     C469.339,238.353,454.964,224.001,437.339,224.001z M437.339,266.665c-5.89,0-10.687-4.781-10.687-10.664     s4.797-10.664,10.687-10.664c5.875,0,10.656,4.781,10.656,10.664S443.214,266.665,437.339,266.665z" fill="#FFDA44"/>
			<path d="M323.059,228.064l-39.718-5.773l-17.781-36c-1.797-3.641-5.5-5.945-9.562-5.945s-7.766,2.305-9.562,5.945l-17.772,36     l-39.727,5.773c-4.023,0.586-7.359,3.398-8.617,7.258c-1.25,3.867-0.203,8.101,2.703,10.937l28.75,28.023l-6.789,39.562     c-0.688,4.016,0.961,8.062,4.242,10.438c3.289,2.391,7.641,2.703,11.234,0.812l35.537-18.687l35.53,18.688     c1.562,0.828,3.281,1.234,4.969,1.234c2.219,0,4.406-0.688,6.281-2.047c3.281-2.375,4.922-6.422,4.234-10.438l-6.797-39.562     l28.75-28.023c2.906-2.836,3.969-7.07,2.719-10.937C330.418,231.462,327.09,228.65,323.059,228.064z M281.309,262.923     c-2.5,2.453-3.656,5.977-3.062,9.438l4.094,23.797l-21.383-11.234c-1.555-0.812-3.258-1.234-4.961-1.234     s-3.414,0.422-4.961,1.234l-21.374,11.234l4.086-23.797c0.594-3.461-0.555-6.984-3.07-9.438l-17.289-16.852l23.891-3.477     c3.477-0.5,6.476-2.687,8.03-5.835l10.687-21.648l10.688,21.648c1.555,3.148,4.555,5.335,8.031,5.835l23.89,3.477     L281.309,262.923z" fill="#FFDA44"/>
		</g>
	</g>
</g>
<g>
</g>
<g>
</g>
<g>
</g>
<g>
</g>
<g>
</g>
<g>
</g>
<g>
</g>
<g>
</g>
<g>
</g>
<g>
</g>
<g>
</g>
<g>
</g>
<g>
</g>
<g>
</g>
<g>
</g>
</svg>
