<?xml version="1.0" encoding="utf-8"?>
<!-- Generator: Adobe Illustrator 21.0.0, SVG Export Plug-In . SVG Version: 6.00 Build 0)  -->
<svg version="1.0" id="Layer_1" xmlns="http://www.w3.org/2000/svg" xmlns:xlink="http://www.w3.org/1999/xlink" x="0px" y="0px"
	 width="1400px" height="980px" viewBox="0 0 1400 980" enable-background="new 0 0 1400 980" xml:space="preserve">
<rect fill="#00A79D" width="1400" height="980"/>
<g>
	<g>
		<path fill="#231F20" d="M438,456c0,0-17.8,0.2-30.2,0c-29.5-0.4-56.6-13.3-85.1-25.3c-37.6-15.8-60.4-16.6-67.8-16.6
			c-7.5,0-30.2,0.7-67.8,16.6c-28.5,12-55.6,24.9-85.1,25.3c-12.4,0.2-30.2,0-30.2,0c-11,0-10.6,15.1-10.5,34.2
			c-0.1,19.1-0.5,34.2,10.5,34.2c0,0,17.8-0.2,30.2,0c29.5,0.4,56.6,13.3,85.1,25.3c37.6,15.8,60.4,16.6,67.8,16.6
			c7.5,0,30.2-0.7,67.8-16.6c28.5-12,55.6-24.9,85.1-25.3c12.4-0.2,30.2,0,30.2,0c11,0,9.7-15.1,9.5-34.2
			C447.7,471.1,449.1,456,438,456z"/>
		<g>
			<g>
				<g>
					<path fill="#FBB040" d="M407.6,462.7c-29.5-0.4-56.6-13.3-85.1-25.3c-37.6-15.8-60.4-16.6-67.8-16.6c-7.5,0-30.2,0.7-67.8,16.6
						c-28.5,12-55.6,24.9-85.1,25.3c-6.1,0.1-22.7,0.1-38.2,0.1c-0.5,1.1-0.9,2.3-1.2,3.7c15.8,0,33.2,0,39.4-0.1
						c29.5-0.4,56.6-13.3,85.1-25.3c37.6-15.8,60.4-16.6,67.8-16.6c7.5,0,30.2,0.7,67.8,16.6c28.5,12,55.6,24.9,85.1,25.3
						c6.2,0.1,23.3,0.1,39,0.1c-0.3-1.4-0.6-2.6-1.1-3.7C430.1,462.8,413.6,462.8,407.6,462.7z"/>
				</g>
				<g>
					<path fill="#FBB040" d="M407.6,517.7c-29.5,0.4-56.6,13.3-85.1,25.3c-37.6,15.8-60.4,16.6-67.8,16.6c-7.5,0-30.2-0.7-67.8-16.6
						c-28.5-12-55.6-24.9-85.1-25.3c-6.1-0.1-22.7-0.1-38.2-0.1c-0.5-1.1-0.9-2.3-1.2-3.7c15.8,0,33.2,0,39.4,0.1
						c29.5,0.4,56.6,13.3,85.1,25.3c37.6,15.8,60.4,16.6,67.8,16.6c7.5,0,30.2-0.7,67.8-16.6c28.5-12,55.6-24.9,85.1-25.3
						c6.2-0.1,23.3-0.1,39-0.1c-0.3,1.4-0.6,2.6-1.1,3.7C430.1,517.6,413.6,517.6,407.6,517.7z"/>
				</g>
			</g>
		</g>
		<ellipse fill="#FBB040" cx="254.5" cy="490.2" rx="76.4" ry="58"/>
		<g>
			<path fill="#231F20" d="M254.5,546c-40.3,0-73.2-25-73.2-55.8s32.8-55.8,73.2-55.8s73.2,25,73.2,55.8S294.9,546,254.5,546z
				 M254.5,436c-39.5,0-71.7,24.3-71.7,54.2c0,29.9,32.2,54.2,71.7,54.2s71.7-24.3,71.7-54.2C326.2,460.3,294.1,436,254.5,436z"/>
		</g>
		<g>
			<path fill="#231F20" d="M254.5,532.1c-33.3,0-60.4-18.8-60.4-41.9c0-23.1,27.1-41.9,60.4-41.9s60.4,18.8,60.4,41.9
				C315,513.3,287.9,532.1,254.5,532.1z M254.5,449.1c-32.9,0-59.7,18.4-59.7,41.1c0,22.7,26.8,41.1,59.7,41.1s59.7-18.4,59.7-41.1
				C314.2,467.5,287.4,449.1,254.5,449.1z"/>
		</g>
		<g>
			<ellipse fill="#FBB040" cx="153.9" cy="490.2" rx="19.8" ry="26.9"/>
			<ellipse fill="#FBB040" cx="355.2" cy="490.2" rx="19.8" ry="26.9"/>
		</g>
		<g>
			<rect x="78.7" y="477" fill="#FBB040" width="39.1" height="26.3"/>
			<rect x="391.2" y="477" fill="#FBB040" width="39.1" height="26.3"/>
		</g>
		<g>
			<g>
				<g>
					<ellipse fill="#231F20" cx="254.2" cy="442.8" rx="3.1" ry="3.3"/>
					<path fill="#231F20" d="M234.4,445.6c-0.6-1.7,0.2-3.6,1.7-4.3c1.6-0.7,3.3,0.2,3.9,1.9s-0.2,3.6-1.7,4.3
						C236.8,448.1,235,447.3,234.4,445.6z"/>
					<path fill="#231F20" d="M220.2,446.6c1.6-0.5,3.3,0.6,3.7,2.3c0.4,1.8-0.5,3.6-2.2,4s-3.3-0.6-3.7-2.3
						C217.6,448.9,218.5,447.1,220.2,446.6z"/>
					<path fill="#231F20" d="M205.6,455.7c1.6-0.5,3.3,0.6,3.7,2.3c0.4,1.8-0.5,3.6-2.2,4c-1.6,0.5-3.3-0.6-3.7-2.3
						S203.9,456.2,205.6,455.7z"/>
					<path fill="#231F20" d="M193.7,469c1.6-0.5,3.3,0.6,3.7,2.3c0.4,1.8-0.5,3.6-2.2,4s-3.3-0.6-3.7-2.3
						C191.1,471.2,192,469.4,193.7,469z"/>
					<path fill="#231F20" d="M187.8,486.7c1.6-0.5,3.3,0.6,3.7,2.3c0.4,1.8-0.5,3.6-2.2,4s-3.3-0.6-3.7-2.3
						C185.2,489,186.2,487.2,187.8,486.7z"/>
				</g>
				<g>
					<ellipse fill="#231F20" cx="254.2" cy="537.6" rx="3.1" ry="3.3"/>
					<path fill="#231F20" d="M234.4,534.8c-0.6,1.7,0.2,3.6,1.7,4.3s3.3-0.2,3.9-1.9s-0.2-3.6-1.7-4.3
						C236.8,532.3,235,533.1,234.4,534.8z"/>
					<path fill="#231F20" d="M220.2,533.8c1.6,0.5,3.3-0.6,3.7-2.3c0.4-1.8-0.5-3.6-2.2-4s-3.3,0.6-3.7,2.3
						C217.6,531.5,218.5,533.3,220.2,533.8z"/>
					<path fill="#231F20" d="M205.6,524.7c1.6,0.5,3.3-0.6,3.7-2.3c0.4-1.8-0.5-3.6-2.2-4c-1.6-0.5-3.3,0.6-3.7,2.3
						S203.9,524.2,205.6,524.7z"/>
					<path fill="#231F20" d="M193.7,511.4c1.6,0.5,3.3-0.6,3.7-2.3c0.4-1.8-0.5-3.6-2.2-4c-1.6-0.5-3.3,0.6-3.7,2.3
						C191.1,509.2,192,511,193.7,511.4z"/>
				</g>
			</g>
			<g>
				<g>
					<path fill="#231F20" d="M274.6,445.6c0.6-1.7-0.2-3.6-1.7-4.3c-1.6-0.7-3.3,0.2-3.9,1.9s0.2,3.6,1.7,4.3
						C272.3,448.1,274,447.3,274.6,445.6z"/>
					<path fill="#231F20" d="M288.9,446.6c-1.6-0.5-3.3,0.6-3.7,2.3c-0.4,1.8,0.5,3.6,2.2,4s3.3-0.6,3.7-2.3
						C291.5,448.9,290.5,447.1,288.9,446.6z"/>
					<path fill="#231F20" d="M303.5,455.7c-1.6-0.5-3.3,0.6-3.7,2.3s0.5,3.6,2.2,4c1.6,0.5,3.3-0.6,3.7-2.3S305.1,456.2,303.5,455.7
						z"/>
					<path fill="#231F20" d="M315.4,469c-1.6-0.5-3.3,0.6-3.7,2.3s0.5,3.6,2.2,4s3.3-0.6,3.7-2.3C318,471.2,317,469.4,315.4,469z"/>
					<path fill="#231F20" d="M321.3,486.7c-1.6-0.5-3.3,0.6-3.7,2.3c-0.4,1.8,0.5,3.6,2.2,4s3.3-0.6,3.7-2.3
						S322.9,487.2,321.3,486.7z"/>
				</g>
				<g>
					<path fill="#231F20" d="M274.6,534.8c0.6,1.7-0.2,3.6-1.7,4.3c-1.6,0.7-3.3-0.2-3.9-1.9s0.2-3.6,1.7-4.3
						C272.3,532.3,274,533.1,274.6,534.8z"/>
					<path fill="#231F20" d="M288.9,533.8c-1.6,0.5-3.3-0.6-3.7-2.3c-0.4-1.8,0.5-3.6,2.2-4s3.3,0.6,3.7,2.3
						C291.5,531.5,290.5,533.3,288.9,533.8z"/>
					<path fill="#231F20" d="M303.5,524.7c-1.6,0.5-3.3-0.6-3.7-2.3s0.5-3.6,2.2-4c1.6-0.5,3.3,0.6,3.7,2.3S305.1,524.2,303.5,524.7
						z"/>
					<path fill="#231F20" d="M315.4,511.4c-1.6,0.5-3.3-0.6-3.7-2.3s0.5-3.6,2.2-4c1.6-0.5,3.3,0.6,3.7,2.3
						C318,509.2,317,511,315.4,511.4z"/>
				</g>
			</g>
		</g>
		<g>
			<g>
				<polygon fill="#231F20" points="254.5,449.9 255.9,481.1 253.1,481.1 				"/>
				<polygon fill="#231F20" points="254.6,530.5 253.2,499.3 256,499.3 				"/>
			</g>
			<g>
				<polygon fill="#231F20" points="311.8,490.2 267.4,491.6 267.4,488.7 				"/>
				<polygon fill="#231F20" points="197.3,490.2 241.6,488.8 241.6,491.7 				"/>
			</g>
			<g>
				<polygon fill="#231F20" points="295,461.7 264.4,485 262.8,482.5 				"/>
				<polygon fill="#231F20" points="214.1,518.7 244.7,495.4 246.2,497.9 				"/>
			</g>
			<g>
				<polygon fill="#231F20" points="295,518.7 262.9,497.8 264.5,495.4 				"/>
				<polygon fill="#231F20" points="214,461.7 246.2,482.6 244.6,485 				"/>
			</g>
			<g>
				<polygon fill="#231F20" points="231.6,453.3 250.5,481.1 248.2,482.7 				"/>
				<polygon fill="#231F20" points="277.5,527.1 258.5,499.3 260.9,497.7 				"/>
			</g>
			<g>
				<polygon fill="#231F20" points="307,474.1 266.7,488 265.9,485.1 				"/>
				<polygon fill="#231F20" points="202.1,506.3 242.3,492.4 243.1,495.3 				"/>
			</g>
			<g>
				<polygon fill="#231F20" points="275.4,452.7 260.4,482.5 258,481 				"/>
				<polygon fill="#231F20" points="233.6,527.7 248.6,497.9 251.1,499.4 				"/>
			</g>
			<g>
				<polygon fill="#231F20" points="307.8,504.9 266.2,494.9 266.9,492.1 				"/>
				<polygon fill="#231F20" points="201.2,475.5 242.9,485.5 242.2,488.3 				"/>
			</g>
		</g>
		<g>
			<polygon fill="#231F20" points="272.9,520.7 269.4,498.6 284.3,483 263.7,479.8 254.5,459.7 245.3,479.8 224.8,483 239.6,498.6 
				236.1,520.7 254.5,510.3 			"/>
			<path fill="#FBB040" d="M285.7,482.5c-0.2-0.6-0.6-1-1.2-1.1l-19.8-3.1l-8.9-19.3c-0.3-0.6-0.8-0.9-1.3-0.9
				c-0.6,0-1.1,0.3-1.3,0.9l-8.9,19.3l-19.8,3.1c-0.6,0.1-1,0.5-1.2,1.1c-0.2,0.6,0,1.2,0.4,1.7l14.3,15l-3.4,21.2
				c-0.1,0.6,0.1,1.2,0.6,1.6c0.3,0.2,0.6,0.3,0.9,0.3c0.2,0,0.5-0.1,0.7-0.2l17.7-10l17.7,10c0.2,0.1,0.5,0.2,0.7,0.2
				c0.3,0,0.6-0.1,0.9-0.3c0.5-0.4,0.7-1,0.6-1.6l-3.4-21.2l14.3-15C285.8,483.7,285.9,483.1,285.7,482.5z M239.6,498.6L224.8,483
				l20.6-3.2l9.2-20.1l9.2,20.1l20.6,3.2l-14.9,15.6l3.5,22.1l-18.4-10.4l-18.4,10.4L239.6,498.6z"/>
		</g>
	</g>
	<g>
		<path fill="#231F20" d="M438,167.8c0,0-17.8,0.2-30.2,0c-29.5-0.5-56.6-17.1-85.1-32.5C285.2,115,262.4,114,255,114
			c-7.5,0-30.2,0.9-67.8,21.3c-28.5,15.4-55.6,32-85.1,32.5c-12.4,0.2-30.2,0-30.2,0c-11,0-10.6,19.4-10.5,43.9
			c-0.1,24.5-0.5,43.9,10.5,43.9c0,0,17.8-0.2,30.2,0c29.5,0.5,56.6,17.1,85.1,32.5c37.6,20.3,60.4,21.3,67.8,21.3
			c7.5,0,30.2-0.9,67.8-21.3c28.5-15.4,55.6-32,85.1-32.5c12.4-0.2,30.2,0,30.2,0c11,0,9.7-19.4,9.5-43.9
			C447.7,187.2,449.1,167.8,438,167.8z"/>
		<g>
			<g>
				<g>
					<path fill="#FBB040" d="M407.6,176.4c-29.5-0.5-56.6-17.1-85.1-32.5c-37.6-20.3-60.4-21.3-67.8-21.3c-7.5,0-30.2,0.9-67.8,21.3
						c-28.5,15.4-55.6,32-85.1,32.5c-6.1,0.1-22.7,0.1-38.2,0.1c-0.5,1.4-0.9,3-1.2,4.7c15.8,0,33.2,0,39.4-0.1
						c29.5-0.5,56.6-17.1,85.1-32.5c37.6-20.3,60.4-21.3,67.8-21.3c7.5,0,30.2,0.9,67.8,21.3c28.5,15.4,55.6,32,85.1,32.5
						c6.2,0.1,23.3,0.1,39,0.1c-0.3-1.8-0.6-3.3-1.1-4.7C430.1,176.5,413.6,176.5,407.6,176.4z"/>
				</g>
				<g>
					<path fill="#FBB040" d="M407.6,247c-29.5,0.5-56.6,17.1-85.1,32.5c-37.6,20.3-60.4,21.3-67.8,21.3c-7.5,0-30.2-0.9-67.8-21.3
						c-28.5-15.4-55.6-32-85.1-32.5c-6.1-0.1-22.7-0.1-38.2-0.1c-0.5-1.4-0.9-3-1.2-4.7c15.8,0,33.2,0,39.4,0.1
						c29.5,0.5,56.6,17.1,85.1,32.5c37.6,20.3,60.4,21.3,67.8,21.3c7.5,0,30.2-0.9,67.8-21.3c28.5-15.4,55.6-32,85.1-32.5
						c6.2-0.1,23.3-0.1,39-0.1c-0.3,1.8-0.6,3.3-1.1,4.7C430.1,246.9,413.6,246.9,407.6,247z"/>
				</g>
			</g>
		</g>
		<g>
			<rect x="78.7" y="199.5" fill="#FBB040" width="39.1" height="24.4"/>
			<rect x="391.2" y="199.5" fill="#FBB040" width="39.1" height="24.4"/>
		</g>
		<circle fill="#FBB040" cx="254.5" cy="211.7" r="89.7"/>
		<path fill="#FBB040" d="M356.2,245.1H152.9c-6.6,0-12-5.4-12-12v-42.7c0-6.6,5.4-12,12-12h203.3c6.6,0,12,5.4,12,12v42.7
			C368.2,239.7,362.8,245.1,356.2,245.1z"/>
		<g>
			<path fill="#231F20" d="M254.5,293.5c-45.1,0-81.8-36.7-81.8-81.8c0-45.1,36.7-81.8,81.8-81.8s81.8,36.7,81.8,81.8
				C336.3,256.8,299.6,293.5,254.5,293.5z M254.5,133.2c-43.3,0-78.5,35.2-78.5,78.5c0,43.3,35.2,78.5,78.5,78.5S333,255,333,211.7
				C333,168.4,297.8,133.2,254.5,133.2z"/>
		</g>
		<g>
			<path fill="#231F20" d="M254.5,283.5c-39.8,0-72.1-32.2-72.1-71.8s32.4-71.8,72.1-71.8s72.1,32.2,72.1,71.8
				S294.3,283.5,254.5,283.5z M254.5,141.6c-38.8,0-70.4,31.4-70.4,70.1s31.6,70.1,70.4,70.1s70.4-31.4,70.4-70.1
				S293.3,141.6,254.5,141.6z"/>
		</g>
		<g>
			<g>
				<polygon fill="#231F20" points="254.5,147.1 256.1,197.2 252.8,197.2 				"/>
				<polygon fill="#231F20" points="254.6,276.3 252.9,226.2 256.3,226.2 				"/>
			</g>
			<g>
				<polygon fill="#231F20" points="322.1,211.6 269.7,214 269.7,209.3 				"/>
				<polygon fill="#231F20" points="186.9,211.7 239.3,209.4 239.3,214.1 				"/>
			</g>
			<g>
				<polygon fill="#231F20" points="302.3,166 266.2,203.3 264.3,199.4 				"/>
				<polygon fill="#231F20" points="206.8,257.4 242.9,220 244.8,224 				"/>
			</g>
			<g>
				<polygon fill="#231F20" points="302.4,257.3 264.4,223.9 266.3,220 				"/>
				<polygon fill="#231F20" points="206.7,166.1 244.7,199.5 242.8,203.4 				"/>
			</g>
			<g>
				<polygon fill="#231F20" points="227.5,152.5 249.8,197.1 247,199.7 				"/>
				<polygon fill="#231F20" points="281.6,270.9 259.3,226.3 262.1,223.7 				"/>
			</g>
			<g>
				<polygon fill="#231F20" points="316.5,185.8 268.9,208.1 268,203.6 				"/>
				<polygon fill="#231F20" points="192.6,237.5 240.1,215.3 241.1,219.8 				"/>
			</g>
			<g>
				<polygon fill="#231F20" points="279.2,151.6 261.5,199.3 258.6,197 				"/>
				<polygon fill="#231F20" points="229.9,271.8 247.6,224 250.5,226.4 				"/>
			</g>
			<g>
				<polygon fill="#231F20" points="317.5,235.2 268.3,219.2 269.1,214.7 				"/>
				<polygon fill="#231F20" points="191.6,188.1 240.8,204.1 239.9,208.7 				"/>
			</g>
		</g>
		<g>
			<polygon fill="#231F20" points="280.7,251.9 275.7,222.8 296.9,202.2 267.6,197.9 254.5,171.4 241.5,197.9 212.2,202.2 
				233.4,222.8 228.4,251.9 254.5,238.2 			"/>
			<path fill="#FBB040" d="M298.9,201.5c-0.3-0.8-0.9-1.3-1.7-1.4L269,196l-12.6-25.5c-0.4-0.7-1.1-1.2-1.9-1.2s-1.5,0.5-1.9,1.2
				L240,196l-28.1,4.1c-0.8,0.1-1.5,0.7-1.7,1.4c-0.3,0.8,0,1.6,0.5,2.2l20.4,19.8l-4.8,28c-0.1,0.8,0.2,1.6,0.8,2.1
				c0.4,0.3,0.8,0.4,1.3,0.4c0.3,0,0.7-0.1,1-0.2l25.2-13.2l25.2,13.2c0.3,0.2,0.7,0.2,1,0.2c0.4,0,0.9-0.1,1.3-0.4
				c0.7-0.5,1-1.3,0.8-2.1l-4.8-28l20.4-19.8C298.9,203.1,299.1,202.3,298.9,201.5z M233.4,222.8l-21.2-20.6l29.2-4.2l13.1-26.5
				l13.1,26.5l29.2,4.2l-21.2,20.6l5,29.1l-26.2-13.8l-26.2,13.8L233.4,222.8z"/>
		</g>
	</g>
	<g>
		<path fill="#231F20" d="M890.7,165.9c0,0-17.8,0.2-30.2,0c-29.5-0.5-56.6-17.1-85.1-32.5c-37.6-20.3-60.4-21.3-67.8-21.3
			c-7.5,0-30.2,0.9-67.8,21.3c-28.5,15.4-55.6,32-85.1,32.5c-12.4,0.2-30.2,0-30.2,0c-11,0-10.6,19.4-10.5,43.9
			c-0.1,24.5-0.5,43.9,10.5,43.9c0,0,17.8-0.2,30.2,0c29.5,0.5,56.6,17.1,85.1,32.5c37.6,20.3,60.4,21.3,67.8,21.3
			c7.5,0,30.2-0.9,67.8-21.3c28.5-15.4,55.6-32,85.1-32.5c12.4-0.2,30.2,0,30.2,0c11,0,9.7-19.4,9.5-43.9
			C900.4,185.3,901.8,165.9,890.7,165.9z"/>
		<g>
			<g>
				<g>
					<path fill="#FBB040" d="M860.3,174.5c-29.5-0.5-56.6-17.1-85.1-32.5c-37.6-20.3-60.4-21.3-67.8-21.3c-7.5,0-30.2,0.9-67.8,21.3
						c-28.5,15.4-55.6,32-85.1,32.5c-6.1,0.1-22.7,0.1-38.2,0.1c-0.5,1.4-0.9,3-1.2,4.7c15.8,0,33.2,0,39.4-0.1
						c29.5-0.5,56.6-17.1,85.1-32.5c37.6-20.3,60.4-21.3,67.8-21.3c7.5,0,30.2,0.9,67.8,21.3c28.5,15.4,55.6,32,85.1,32.5
						c6.2,0.1,23.3,0.1,39,0.1c-0.3-1.8-0.6-3.3-1.1-4.7C882.8,174.6,866.3,174.6,860.3,174.5z"/>
				</g>
				<g>
					<path fill="#FBB040" d="M860.3,245.1c-29.5,0.5-56.6,17.1-85.1,32.5c-37.6,20.3-60.4,21.3-67.8,21.3c-7.5,0-30.2-0.9-67.8-21.3
						c-28.5-15.4-55.6-32-85.1-32.5c-6.1-0.1-22.7-0.1-38.2-0.1c-0.5-1.4-0.9-3-1.2-4.7c15.8,0,33.2,0,39.4,0.1
						c29.5,0.5,56.6,17.1,85.1,32.5c37.6,20.3,60.4,21.3,67.8,21.3c7.5,0,30.2-0.9,67.8-21.3c28.5-15.4,55.6-32,85.1-32.5
						c6.2-0.1,23.3-0.1,39-0.1c-0.3,1.8-0.6,3.3-1.1,4.7C882.8,245,866.3,245,860.3,245.1z"/>
				</g>
			</g>
		</g>
		<g>
			<rect x="588.3" y="180.9" fill="#FBB040" width="29.4" height="58"/>
			<rect x="796.7" y="180.9" fill="#FBB040" width="29.4" height="58"/>
		</g>
		<circle fill="#FBB040" cx="707.2" cy="209.8" r="81.6"/>
		<g>
			<path fill="#231F20" d="M707.2,288.8c-43.6,0-79-35.4-79-79c0-43.6,35.4-79,79-79c43.6,0,79,35.4,79,79
				C786.2,253.4,750.8,288.8,707.2,288.8z M707.2,134.1c-41.8,0-75.8,34-75.8,75.8c0,41.8,34,75.8,75.8,75.8
				c41.8,0,75.8-34,75.8-75.8C783,168.1,749,134.1,707.2,134.1z"/>
		</g>
		<g>
			<path fill="#231F20" d="M707.2,275.1c-36.2,0-65.6-29.3-65.6-65.3s29.4-65.3,65.6-65.3s65.6,29.3,65.6,65.3
				S743.4,275.1,707.2,275.1z M707.2,146.1c-35.3,0-64,28.6-64,63.7s28.7,63.7,64,63.7s64-28.6,64-63.7S742.5,146.1,707.2,146.1z"/>
		</g>
		<path fill="#231F20" d="M707,137.3l0.6,1.9l2,0l-1.6,1.2l0.6,1.9l-1.6-1.2l-1.6,1.2l0.6-1.9l-1.6-1.2l2,0L707,137.3z M696.6,140
			l-2,0.3l1.8,0.9l-0.4,2l1.4-1.4l1.8,1l-0.9-1.8l1.5-1.4l-2,0.3l-0.9-1.8L696.6,140z M687,142.2l-1.9,0.5l1.9,0.7l-0.1,2l1.2-1.6
			l1.9,0.7l-1.1-1.7l1.3-1.6l-1.9,0.6l-1.1-1.7L687,142.2z M677.8,145.6l-1.9,0.8l2,0.4l0.2,2l1-1.8l2,0.4l-1.4-1.5l1-1.7l-1.8,0.8
			l-1.3-1.5L677.8,145.6z M669.2,150.4l-1.7,1l2,0.1l0.5,2l0.7-1.9l2,0.2l-1.6-1.3l0.8-1.9l-1.7,1.1l-1.5-1.3L669.2,150.4z
			 M661.2,156.2l-1.6,1.3l2-0.2l0.7,1.9l0.5-2l2-0.1l-1.7-1l0.5-2l-1.5,1.3l-1.7-1.1L661.2,156.2z M654.2,163.2l-1.4,1.5l2-0.4
			l1,1.8l0.2-2l2-0.4l-1.9-0.8l0.2-2l-1.3,1.5l-1.8-0.8L654.2,163.2z M648.3,171l-1.1,1.7l1.9-0.7l1.2,1.6l-0.1-2l1.9-0.7l-1.9-0.5
			l0-2l-1.1,1.7l-1.9-0.6L648.3,171z M643.4,179.6l-0.9,1.8l1.8-1l1.4,1.4l-0.4-2l1.8-0.9l-2-0.3l-0.3-2l-0.9,1.8l-2-0.3
			L643.4,179.6z M639.8,188.7l-0.6,1.9l1.6-1.2l1.6,1.2l-0.6-1.9l1.6-1.2l-2,0l-0.6-1.9l-0.6,1.9l-2,0L639.8,188.7z M637.6,198.3
			l-0.4,2l1.4-1.4l1.8,1l-0.9-1.8l1.5-1.4l-2,0.3l-0.9-1.8l-0.3,2l-2,0.3L637.6,198.3z M636.7,208.1l-0.1,2l1.2-1.6l1.9,0.7
			l-1.1-1.7l1.3-1.6l-1.9,0.6l-1.1-1.7l0,2l-1.9,0.5L636.7,208.1z M637.1,218l0.2,2l1-1.8l2,0.4l-1.4-1.5l1-1.7l-1.8,0.8l-1.3-1.5
			l0.2,2l-1.9,0.8L637.1,218z M638.9,227.7l0.5,2l0.7-1.9l2,0.2l-1.6-1.3l0.8-1.9l-1.7,1.1l-1.5-1.3l0.5,2l-1.7,1L638.9,227.7z
			 M642.1,237l0.7,1.9l0.5-2l2-0.1l-1.7-1l0.5-2l-1.5,1.3l-1.7-1.1l0.8,1.9l-1.6,1.3L642.1,237z M646.5,245.8l1,1.8l0.2-2l2-0.4
			l-1.9-0.8l0.2-2l-1.3,1.5l-1.8-0.8l1,1.7l-1.4,1.5L646.5,245.8z M652.1,253.9l1.2,1.6l-0.1-2l1.9-0.7l-1.9-0.5l0-2L652,252
			l-1.9-0.6l1.3,1.6l-1.1,1.7L652.1,253.9z M658.8,261.1l1.4,1.4l-0.4-2l1.8-0.9l-2-0.3l-0.3-2l-0.9,1.8l-2-0.3l1.5,1.4l-0.9,1.8
			L658.8,261.1z M666.4,267.4l1.6,1.2l-0.6-1.9l1.6-1.2l-2,0l-0.6-1.9l-0.6,1.9l-2,0l1.6,1.2l-0.6,1.9L666.4,267.4z M674.8,272.5
			l1.8,1l-0.9-1.8l1.5-1.4l-2,0.3l-0.9-1.8l-0.3,2l-2,0.3l1.8,0.9l-0.4,2L674.8,272.5z M741.1,271.8l1.8-0.9l-2-0.3l-0.3-2l-0.9,1.8
			l-2-0.3l1.5,1.4l-0.9,1.8l1.8-1l1.4,1.4L741.1,271.8z M749.4,266.5l1.6-1.2l-2,0l-0.6-1.9l-0.6,1.9l-2,0l1.6,1.2l-0.6,1.9l1.6-1.2
			l1.6,1.2L749.4,266.5z M756.8,260l1.5-1.4l-2,0.3l-0.9-1.8l-0.3,2l-2,0.3l1.8,0.9l-0.4,2l1.4-1.4l1.8,1L756.8,260z M763.4,252.6
			l1.3-1.6l-1.9,0.6l-1.1-1.7l0,2l-1.9,0.5l1.9,0.7l-0.1,2l1.2-1.6l1.9,0.7L763.4,252.6z M768.8,244.4l1-1.7l-1.8,0.8l-1.3-1.5
			l0.2,2l-1.9,0.8l2,0.4l0.2,2l1-1.8l2,0.4L768.8,244.4z M773,235.5l0.8-1.9l-1.7,1.1l-1.5-1.3l0.5,1.9l-1.7,1l2,0.1l0.5,2l0.7-1.9
			l2,0.2L773,235.5z M775.9,226.1l0.5-2l-1.5,1.3l-1.7-1.1l0.8,1.9l-1.6,1.3l2-0.2l0.7,1.9l0.5-2l2-0.1L775.9,226.1z M777.5,216.4
			l0.2-2l-1.3,1.5l-1.8-0.8l1,1.7l-1.4,1.5l2-0.4l1,1.8l0.2-2l2-0.4L777.5,216.4z M777.8,206.5l0-2l-1.1,1.7l-1.9-0.6l1.3,1.6
			l-1.1,1.7l1.9-0.7l1.2,1.6l-0.1-2l1.9-0.7L777.8,206.5z M776.6,196.8l-0.3-2l-0.9,1.8l-2-0.3l1.5,1.4l-0.9,1.8l1.8-1l1.4,1.4
			l-0.4-2l1.8-0.9L776.6,196.8z M774.1,187.2l-0.6-1.9l-0.6,1.9l-2,0l1.6,1.2l-0.6,1.9l1.6-1.2l1.6,1.2l-0.6-1.9l1.6-1.2
			L774.1,187.2z M770.3,178.1l-0.9-1.8l-0.3,2l-2,0.3l1.8,0.9l-0.4,2l1.4-1.4l1.8,1l-0.9-1.8l1.5-1.4L770.3,178.1z M765.3,169.7
			l-1.1-1.7l0,2l-1.9,0.5l1.9,0.7l-0.1,2l1.2-1.6l1.9,0.7l-1.1-1.7l1.3-1.6L765.3,169.7z M759.2,162l-1.3-1.5l0.2,2l-1.9,0.8l2,0.4
			l0.2,2l1-1.8l2,0.4l-1.4-1.5l1-1.7L759.2,162z M752,155.2l-1.5-1.3l0.5,1.9l-1.7,1l2,0.1l0.5,2l0.7-1.9l2,0.2l-1.6-1.3l0.8-1.9
			L752,155.2z M744,149.5l-1.7-1.1l0.8,1.9l-1.6,1.3l2-0.2l0.7,1.9l0.5-2l2-0.1l-1.7-1l0.5-2L744,149.5z M735.2,145l-1.8-0.8l1,1.7
			l-1.4,1.5l2-0.4l1,1.8l0.2-2l2-0.4l-1.9-0.8l0.2-2L735.2,145z M725.9,141.7l-1.9-0.6l1.3,1.6l-1.1,1.7l1.9-0.7l1.2,1.6l-0.1-2
			l1.9-0.7l-1.9-0.5l0-2L725.9,141.7z M716.3,139.8l-2-0.3l1.5,1.4l-0.9,1.8l1.8-1l1.4,1.4l-0.4-2l1.8-0.9l-2-0.3l-0.3-2
			L716.3,139.8z M707,277.4l0.6,1.9l2,0l-1.6,1.2l0.6,1.9l-1.6-1.2l-1.6,1.2l0.6-1.9l-1.6-1.2l2,0L707,277.4z M694.8,278.3l-2,0.3
			l1.8,0.9l-0.4,2l1.4-1.4l1.8,1l-0.9-1.8l1.5-1.4l-2,0.3l-0.9-1.8L694.8,278.3z M683.3,275.3l-1.9,0.5l1.9,0.7l-0.1,2l1.2-1.6
			l1.9,0.7l-1.1-1.7l1.3-1.6l-1.9,0.6l-1.1-1.7L683.3,275.3z M729.6,274.8l-1.9-0.6l1.3,1.6l-1.1,1.7l1.9-0.7l1.2,1.6l-0.1-2
			l1.9-0.7l-1.9-0.5l0-2L729.6,274.8z M718.1,278.1l-2-0.3l1.5,1.4l-0.9,1.8l1.8-1l1.4,1.4l-0.4-2l1.8-0.9l-2-0.3l-0.3-2
			L718.1,278.1z"/>
		<g>
			<polygon fill-rule="evenodd" clip-rule="evenodd" fill="#231F20" points="711.8,165.8 707.2,151.8 702.7,165.8 688,165.8 
				699.9,174.5 695.3,188.5 707.2,179.8 719.1,188.5 714.6,174.5 726.5,165.8 			"/>
			<polygon fill-rule="evenodd" clip-rule="evenodd" fill="#231F20" points="755.1,177.2 745.3,177.2 742.3,167.9 739.3,177.2 
				729.4,177.2 737.4,183 734.3,192.3 742.3,186.5 750.2,192.3 747.2,183 			"/>
			<polygon fill-rule="evenodd" clip-rule="evenodd" fill="#231F20" points="675.2,177.2 672.2,167.9 669.2,177.2 659.3,177.2 
				667.3,183 664.2,192.3 672.2,186.5 680.1,192.3 677.1,183 685,177.2 			"/>
		</g>
		<g>
			<circle fill="#FBB040" cx="548.5" cy="209.8" r="22"/>
			<circle fill="#FBB040" cx="866" cy="209.8" r="22"/>
		</g>
	</g>
	<g>
		<path fill="#231F20" d="M890.7,456.1c0,0-17.8,0.2-30.2,0c-29.5-0.4-56.6-13.3-85.1-25.3c-37.6-15.8-60.4-16.6-67.8-16.6
			c-7.5,0-30.2,0.7-67.8,16.6c-28.5,12-55.6,24.9-85.1,25.3c-12.4,0.2-30.2,0-30.2,0c-11,0-10.6,15.1-10.5,34.2
			c-0.1,19.1-0.5,34.2,10.5,34.2c0,0,17.8-0.2,30.2,0c29.5,0.4,56.6,13.3,85.1,25.3c37.6,15.8,60.4,16.6,67.8,16.6
			c7.5,0,30.2-0.7,67.8-16.6c28.5-12,55.6-24.9,85.1-25.3c12.4-0.2,30.2,0,30.2,0c11,0,9.7-15.1,9.5-34.2
			C900.4,471.2,901.8,456.1,890.7,456.1z"/>
		<g>
			<g>
				<g>
					<path fill="#FBB040" d="M860.3,462.8c-29.5-0.4-56.6-13.3-85.1-25.3c-37.6-15.8-60.4-16.6-67.8-16.6c-7.5,0-30.2,0.7-67.8,16.6
						c-28.5,12-55.6,24.9-85.1,25.3c-6.1,0.1-22.7,0.1-38.2,0.1c-0.5,1.1-0.9,2.3-1.2,3.7c15.8,0,33.2,0,39.4-0.1
						c29.5-0.4,56.6-13.3,85.1-25.3c37.6-15.8,60.4-16.6,67.8-16.6c7.5,0,30.2,0.7,67.8,16.6c28.5,12,55.6,24.9,85.1,25.3
						c6.2,0.1,23.3,0.1,39,0.1c-0.3-1.4-0.6-2.6-1.1-3.7C882.8,462.9,866.3,462.9,860.3,462.8z"/>
				</g>
				<g>
					<path fill="#FBB040" d="M860.3,517.8c-29.5,0.4-56.6,13.3-85.1,25.3c-37.6,15.8-60.4,16.6-67.8,16.6c-7.5,0-30.2-0.7-67.8-16.6
						c-28.5-12-55.6-24.9-85.1-25.3c-6.1-0.1-22.7-0.1-38.2-0.1c-0.5-1.1-0.9-2.3-1.2-3.7c15.8,0,33.2,0,39.4,0.1
						c29.5,0.4,56.6,13.3,85.1,25.3c37.6,15.8,60.4,16.6,67.8,16.6c7.5,0,30.2-0.7,67.8-16.6c28.5-12,55.6-24.9,85.1-25.3
						c6.2-0.1,23.3-0.1,39-0.1c-0.3,1.4-0.6,2.6-1.1,3.7C882.8,517.8,866.3,517.8,860.3,517.8z"/>
				</g>
			</g>
		</g>
		<path fill="#FBB040" d="M794.1,524.3H620.4c-6.6,0-12-5.4-12-12v-43.8c0-6.6,5.4-12,12-12h173.7c6.6,0,12,5.4,12,12v43.8
			C806.1,518.9,800.7,524.3,794.1,524.3z"/>
		<ellipse fill="#FBB040" cx="707.2" cy="490.3" rx="76.4" ry="58"/>
		<g>
			<path fill="#231F20" d="M707.2,546.1c-40.3,0-73.2-25-73.2-55.8s32.8-55.8,73.2-55.8s73.2,25,73.2,55.8S747.6,546.1,707.2,546.1z
				 M707.2,436.2c-39.5,0-71.7,24.3-71.7,54.2s32.2,54.2,71.7,54.2c39.5,0,71.7-24.3,71.7-54.2S746.8,436.2,707.2,436.2z"/>
		</g>
		<g>
			<path fill="#231F20" d="M707.2,532.2c-33.3,0-60.4-18.8-60.4-41.9s27.1-41.9,60.4-41.9c33.3,0,60.4,18.8,60.4,41.9
				S740.6,532.2,707.2,532.2z M707.2,449.3c-32.9,0-59.7,18.4-59.7,41.1s26.8,41.1,59.7,41.1s59.7-18.4,59.7-41.1
				S740.1,449.3,707.2,449.3z"/>
		</g>
		<g>
			<rect x="531.4" y="477.2" fill="#FBB040" width="39.1" height="26.3"/>
			<rect x="843.9" y="477.2" fill="#FBB040" width="39.1" height="26.3"/>
		</g>
		<g>
			<polygon fill="#FBB040" points="725.6,520.8 722.1,498.8 737,483.1 716.4,479.9 707.2,459.8 698,479.9 677.5,483.1 692.3,498.8 
				688.8,520.8 707.2,510.4 			"/>
			<path fill="#231F20" d="M738.4,482.6c-0.2-0.6-0.6-1-1.2-1.1l-19.8-3.1l-8.9-19.3c-0.3-0.6-0.8-0.9-1.3-0.9
				c-0.6,0-1.1,0.3-1.3,0.9l-8.9,19.3l-19.8,3.1c-0.6,0.1-1,0.5-1.2,1.1c-0.2,0.6,0,1.2,0.4,1.7l14.3,15l-3.4,21.2
				c-0.1,0.6,0.1,1.2,0.6,1.6c0.3,0.2,0.6,0.3,0.9,0.3c0.2,0,0.5-0.1,0.7-0.2l17.7-10l17.7,10c0.2,0.1,0.5,0.2,0.7,0.2
				c0.3,0,0.6-0.1,0.9-0.3c0.5-0.4,0.7-1,0.6-1.6l-3.4-21.2l14.3-15C738.5,483.9,738.6,483.2,738.4,482.6z M692.3,498.8l-14.9-15.6
				l20.6-3.2l9.2-20.1l9.2,20.1l20.6,3.2l-14.9,15.6l3.5,22.1l-18.4-10.4l-18.4,10.4L692.3,498.8z"/>
		</g>
		<path fill="#231F20" d="M706.9,438.2l0.6,2.2l2.1,0l-1.7,1.3l0.7,2.2l-1.7-1.4l-1.7,1.4l0.7-2.2l-1.7-1.3l2.1,0L706.9,438.2z
			 M695.9,441.3l-2.1,0.3l1.9,1.1l-0.4,2.3l1.5-1.6l1.9,1.1l-1-2.1l1.6-1.6l-2.1,0.3l-0.9-2.1L695.9,441.3z M684.8,443.7l-2.1,0.6
			l2,0.8l-0.1,2.3l1.3-1.8l2,0.8l-1.2-1.9l1.3-1.8l-2,0.7l-1.2-1.9L684.8,443.7z M674.1,447.7l-2,0.9l2.1,0.4l0.2,2.3l1-2l2.1,0.5
			l-1.4-1.7l1.1-2l-1.9,1l-1.4-1.7L674.1,447.7z M665,453.1l-1.8,1.2l2.1,0.1l0.5,2.2l0.8-2.1l2.1,0.2l-1.7-1.5l0.8-2.1l-1.8,1.2
			l-1.6-1.5L665,453.1z M656.6,459.8l-1.7,1.5l2.1-0.2l0.8,2.1l0.5-2.2l2.1-0.1l-1.8-1.2l0.5-2.2l-1.6,1.5l-1.8-1.2L656.6,459.8z
			 M649.2,467.7l-1.4,1.7l2.1-0.5l1,2l0.2-2.3l2.1-0.4l-2-0.9l0.3-2.3l-1.4,1.7l-1.9-1L649.2,467.7z M642.9,476.6l-1.2,1.9l2-0.8
			l1.3,1.8l-0.1-2.3l2-0.8l-2.1-0.6l0-2.3l-1.2,1.9l-2-0.7L642.9,476.6z M640.8,489.7l2,0.9l-1.1-2l1.4-1.7l-2.1,0.5l-1.1-2
			l-0.2,2.3l-2.1,0.5l2,0.9l-0.2,2.3L640.8,489.7z M642,502.8l1,2l0.2-2.3l2.1-0.5l-2-0.9l0.2-2.3l-1.4,1.7l-1.9-1l1.1,2l-1.4,1.7
			L642,502.8z M647.9,512l1.3,1.8l-0.1-2.3l2-0.8l-2.1-0.6l0-2.3l-1.2,1.9l-2-0.7l1.3,1.8l-1.2,1.9L647.9,512z M655,520.3l1.5,1.6
			l-0.4-2.3l1.9-1.1l-2.1-0.3l-0.3-2.3l-0.9,2.1l-2.1-0.3l1.6,1.6l-1,2.1L655,520.3z M663,527.4l1.7,1.4l-0.7-2.2l1.7-1.3l-2.1,0
			l-0.6-2.2l-0.6,2.2l-2.1,0l1.7,1.3l-0.7,2.2L663,527.4z M672.8,533.3l1.9,1.1l-1-2.1l1.6-1.6l-2.1,0.4l-0.9-2.1l-0.3,2.3l-2.1,0.3
			l1.9,1.1l-0.4,2.3L672.8,533.3z M742.9,531.4l1.9-1.1l-2.1-0.3l-0.3-2.3l-0.9,2.1l-2.1-0.3l1.6,1.6l-1,2.1l1.9-1.1l1.5,1.6
			L742.9,531.4z M752.7,526.4l1.7-1.3l-2.1,0l-0.6-2.2l-0.6,2.2l-2.1,0l1.7,1.3l-0.7,2.2l1.7-1.4l1.7,1.4L752.7,526.4z M760.6,519
			l1.6-1.6l-2.1,0.3l-0.9-2.1l-0.3,2.3l-2.1,0.3l1.9,1.1l-0.4,2.3l1.5-1.6l1.9,1.1L760.6,519z M767.4,510.6l1.3-1.8l-2,0.7l-1.2-1.9
			l0,2.3l-2.1,0.6l2,0.8l-0.1,2.3l1.3-1.8l2,0.8L767.4,510.6z M773.2,501.2l1.1-2l-1.9,1l-1.4-1.7l0.3,2.3l-2,0.9l2.1,0.4l0.2,2.3
			l1-2l2.1,0.5L773.2,501.2z M774.8,488.8l2-0.9l-2.1-0.5l-0.2-2.3l-1.1,2l-2.1-0.5l1.4,1.7l-1.1,2l2-0.9l1.4,1.8L774.8,488.8z
			 M771.4,475.1l-1.2-1.9l0,2.3l-2.1,0.6l2,0.8l-0.1,2.3l1.3-1.8l2,0.8l-1.2-1.9l1.3-1.8L771.4,475.1z M764.9,466.3l-1.4-1.7
			l0.3,2.3l-2,0.9l2.1,0.4l0.2,2.3l1-2l2.1,0.5l-1.4-1.7l1.1-2L764.9,466.3z M756.4,458.6l-1.6-1.5l0.5,2.2l-1.8,1.2l2.1,0.1
			l0.5,2.2l0.8-2.1l2.1,0.2l-1.7-1.5l0.8-2.1L756.4,458.6z M746.9,452.1l-1.8-1.2l0.8,2.1l-1.7,1.5l2.1-0.2l0.8,2.1l0.5-2.2l2.1-0.1
			l-1.8-1.2l0.5-2.2L746.9,452.1z M737.7,447l-1.9-1l1.1,2l-1.4,1.7l2.1-0.5l1,2l0.2-2.3l2.1-0.4l-2-0.9l0.3-2.3L737.7,447z
			 M727.9,443.3l-2-0.7l1.3,1.8l-1.2,1.9l2-0.8l1.3,1.8l-0.1-2.3l2-0.8l-2.1-0.6l0-2.3L727.9,443.3z M716.7,441l-2.1-0.3l1.6,1.6
			l-1,2.1l1.9-1.1l1.5,1.6l-0.4-2.3l1.9-1.1l-2.1-0.3l-0.3-2.3L716.7,441z M706.9,536.8l0.6,2.2l2.1,0l-1.7,1.3l0.7,2.2l-1.7-1.4
			l-1.7,1.4l0.7-2.2l-1.7-1.3l2.1,0L706.9,536.8z M694,537.8l-2.1,0.3l1.9,1.1l-0.4,2.3l1.5-1.6l1.9,1.1l-1-2.1l1.6-1.6l-2.1,0.3
			l-0.9-2.1L694,537.8z M681.8,535.4l-2.1,0.6l2,0.8l-0.1,2.3l1.3-1.8l2,0.8l-1.2-1.9l1.3-1.8l-2,0.7l-1.2-1.9L681.8,535.4z
			 M730.8,534.9l-2-0.7l1.3,1.8l-1.2,1.9l2-0.8l1.3,1.8l-0.1-2.3l2-0.8l-2.1-0.6l0-2.3L730.8,534.9z M718.7,537.6l-2.1-0.3l1.6,1.6
			l-1,2.1l1.9-1.1l1.5,1.6l-0.4-2.3l1.9-1.1l-2.1-0.3l-0.3-2.3L718.7,537.6z"/>
	</g>
	<g>
		<path fill="#231F20" d="M438,725.5c0,0-17.8,0.2-30.2,0c-29.5-0.5-56.6-17.1-85.1-32.5c-37.6-20.3-60.4-21.3-67.8-21.3
			c-7.5,0-30.2,0.9-67.8,21.3c-28.5,15.4-55.6,32-85.1,32.5c-12.4,0.2-30.2,0-30.2,0c-11,0-10.6,19.4-10.5,43.9
			c-0.1,24.5-0.5,43.9,10.5,43.9c0,0,17.8-0.2,30.2,0c29.5,0.5,56.6,17.1,85.1,32.5c37.6,20.3,60.4,21.3,67.8,21.3
			c7.5,0,30.2-0.9,67.8-21.3c28.5-15.4,55.6-32,85.1-32.5c12.4-0.2,30.2,0,30.2,0c11,0,9.7-19.4,9.5-43.9
			C447.7,744.9,449.1,725.5,438,725.5z"/>
		<path fill="#FBB040" d="M388.7,744.6c0,0-22.8-5.6-33.1-8.5c-22.2-6.3-25.6-14.3-47.8-26.3c-29.4-15.9-47.2-16.6-53-16.6
			c-5.8,0-23.6,0.7-53,16.6c-22.2,12-23.1,19.9-47.8,26.3c-9.4,2.5-33.1,8.5-33.1,8.5c-8.6,0-8.3,5.7-8.2,24.9
			c-0.1,19.2-0.4,24.9,8.2,24.9c0,0,23.6,6.1,33.1,8.5c23.4,5.8,25.6,14.3,47.8,26.3c29.4,15.9,47.2,16.6,53,16.6
			c5.8,0,23.6-0.7,53-16.6c22.2-12,25.5-20.6,47.8-26.3c11.2-2.9,33.1-8.5,33.1-8.5c8.6,0,7.6-5.7,7.5-24.9
			C396.3,750.3,397.4,744.6,388.7,744.6z"/>
		<g>
			<g>
				<g>
					<path fill="#FBB040" d="M407.6,734.1c-29.5-0.5-56.6-17.1-85.1-32.5c-37.6-20.3-60.4-21.3-67.8-21.3c-7.5,0-30.2,0.9-67.8,21.3
						c-28.5,15.4-55.6,32-85.1,32.5c-6.1,0.1-22.7,0.1-38.2,0.1c-0.5,1.4-0.9,3-1.2,4.7c15.8,0,33.2,0,39.4-0.1
						c29.5-0.5,56.6-17.1,85.1-32.5c37.6-20.3,60.4-21.3,67.8-21.3c7.5,0,30.2,0.9,67.8,21.3c28.5,15.4,55.6,32,85.1,32.5
						c6.2,0.1,23.3,0.1,39,0.1c-0.3-1.8-0.6-3.3-1.1-4.7C430.1,734.2,413.6,734.2,407.6,734.1z"/>
				</g>
				<g>
					<path fill="#FBB040" d="M407.6,804.7c-29.5,0.5-56.6,17.1-85.1,32.5c-37.6,20.3-60.4,21.3-67.8,21.3c-7.5,0-30.2-0.9-67.8-21.3
						c-28.5-15.4-55.6-32-85.1-32.5c-6.1-0.1-22.7-0.1-38.2-0.1c-0.5-1.4-0.9-3-1.2-4.7c15.8,0,33.2,0,39.4,0.1
						c29.5,0.5,56.6,17.1,85.1,32.5c37.6,20.3,60.4,21.3,67.8,21.3c7.5,0,30.2-0.9,67.8-21.3c28.5-15.4,55.6-32,85.1-32.5
						c6.2-0.1,23.3-0.1,39-0.1c-0.3,1.8-0.6,3.3-1.1,4.7C430.1,804.6,413.6,804.6,407.6,804.7z"/>
				</g>
			</g>
		</g>
		<g>
			<path fill="#FBB040" d="M90.2,748.4h-4.7c-6.2,0-11.3,5.1-11.3,11.3v19.4c0,6.2,5.1,11.3,11.3,11.3h4.7c6.2,0,11.3-5.1,11.3-11.3
				v-19.4C101.6,753.5,96.5,748.4,90.2,748.4z"/>
			<path fill="#FBB040" d="M423.6,748.4h-4.7c-6.2,0-11.3,5.1-11.3,11.3v19.4c0,6.2,5.1,11.3,11.3,11.3h4.7
				c6.2,0,11.3-5.1,11.3-11.3v-19.4C434.9,753.5,429.8,748.4,423.6,748.4z"/>
		</g>
		<g>
			<circle fill="#231F20" cx="254.5" cy="769.4" r="71.3"/>
			<circle fill="#FBB040" cx="254.5" cy="769.4" r="50"/>
			<g>
				<path fill="#FBB040" d="M254.5,838.5c-38.1,0-69-31-69-69c0-38.1,31-69,69-69s69,31,69,69C323.6,807.5,292.6,838.5,254.5,838.5z
					 M254.5,703.2c-36.5,0-66.2,29.7-66.2,66.2c0,36.5,29.7,66.2,66.2,66.2s66.2-29.7,66.2-66.2C320.7,732.9,291,703.2,254.5,703.2z
					"/>
			</g>
			<g>
				<path fill="#FBB040" d="M254.5,826.5c-31.6,0-57.3-25.6-57.3-57.1c0-31.5,25.7-57.1,57.3-57.1s57.3,25.6,57.3,57.1
					C311.8,800.9,286.1,826.5,254.5,826.5z M254.5,713.8c-30.8,0-55.9,25-55.9,55.7s25.1,55.7,55.9,55.7s55.9-25,55.9-55.7
					S285.4,713.8,254.5,713.8z"/>
			</g>
			<path fill="#FBB040" d="M254.4,706l0.5,1.7l1.8,0l-1.4,1l0.6,1.7l-1.4-1.1l-1.4,1.1l0.6-1.7l-1.4-1l1.8,0L254.4,706z
				 M245.3,708.4l-1.7,0.2l1.6,0.8l-0.3,1.7l1.3-1.2l1.5,0.8l-0.8-1.6l1.3-1.2l-1.7,0.3l-0.8-1.6L245.3,708.4z M236.9,710.3
				l-1.7,0.5l1.7,0.6l-0.1,1.8l1.1-1.4l1.6,0.6l-1-1.4l1.1-1.4l-1.7,0.5l-1-1.5L236.9,710.3z M228.8,713.3l-1.6,0.7l1.7,0.3l0.2,1.8
				l0.9-1.5l1.7,0.4l-1.2-1.3l0.9-1.5l-1.6,0.7l-1.2-1.3L228.8,713.3z M221.3,717.5l-1.5,0.9l1.8,0.1l0.4,1.7l0.6-1.6l1.8,0.1
				l-1.4-1.1l0.7-1.6l-1.5,1l-1.3-1.1L221.3,717.5z M214.4,722.6l-1.4,1.1l1.8-0.1l0.6,1.6l0.4-1.7l1.8-0.1l-1.5-0.9l0.4-1.7
				l-1.3,1.1l-1.5-1L214.4,722.6z M208.2,728.7l-1.2,1.3l1.7-0.4l0.9,1.5l0.2-1.8l1.7-0.3l-1.6-0.7l0.2-1.7l-1.2,1.3l-1.6-0.7
				L208.2,728.7z M203,735.5l-1,1.4l1.6-0.6l1.1,1.4l-0.1-1.8l1.7-0.6l-1.7-0.5l0-1.8l-1,1.5l-1.7-0.5L203,735.5z M198.8,743
				l-0.8,1.6l1.5-0.8l1.3,1.2l-0.3-1.7l1.6-0.8l-1.7-0.2l-0.3-1.7l-0.8,1.6l-1.7-0.3L198.8,743z M195.7,751l-0.6,1.7l1.4-1.1
				l1.4,1.1l-0.6-1.7l1.4-1l-1.8,0l-0.5-1.7L196,750l-1.8,0L195.7,751z M193.7,759.4l-0.3,1.7l1.3-1.2l1.5,0.8l-0.8-1.6l1.3-1.2
				l-1.7,0.3l-0.8-1.6l-0.3,1.7l-1.7,0.2L193.7,759.4z M192.9,768l-0.1,1.8l1.1-1.4l1.6,0.6l-1-1.4l1.1-1.4l-1.7,0.5l-1-1.5l0,1.8
				l-1.7,0.5L192.9,768z M193.3,776.6l0.2,1.8l0.9-1.5l1.7,0.4l-1.2-1.3l0.9-1.5l-1.6,0.7l-1.2-1.3l0.2,1.7l-1.6,0.7L193.3,776.6z
				 M194.9,785l0.4,1.7l0.6-1.6l1.8,0.1l-1.4-1.1l0.7-1.6l-1.5,1l-1.3-1.1l0.4,1.7l-1.5,0.9L194.9,785z M197.6,793.2l0.6,1.6
				l0.4-1.7l1.8-0.1l-1.5-0.9l0.4-1.7l-1.3,1.1l-1.5-1l0.7,1.6l-1.4,1.1L197.6,793.2z M201.5,800.9l0.9,1.5l0.2-1.8l1.7-0.3
				l-1.6-0.7l0.2-1.7l-1.2,1.3l-1.6-0.7l0.9,1.5l-1.2,1.3L201.5,800.9z M206.4,807.9l1.1,1.4l-0.1-1.8l1.7-0.6l-1.7-0.5l0-1.8
				l-1,1.5l-1.7-0.5l1.1,1.4l-1,1.4L206.4,807.9z M212.2,814.3l1.3,1.2l-0.3-1.7l1.6-0.8l-1.7-0.2l-0.3-1.7l-0.8,1.6l-1.7-0.3
				l1.3,1.2l-0.8,1.6L212.2,814.3z M218.8,819.7l1.4,1.1l-0.6-1.7l1.4-1l-1.8,0l-0.5-1.7l-0.5,1.7l-1.8,0l1.4,1l-0.6,1.7
				L218.8,819.7z M226.2,824.2l1.5,0.8l-0.8-1.6l1.3-1.2l-1.7,0.3l-0.8-1.6l-0.3,1.7l-1.7,0.2l1.6,0.8l-0.3,1.7L226.2,824.2z
				 M284.1,823.5l1.6-0.8l-1.7-0.2l-0.3-1.7l-0.8,1.6l-1.7-0.3l1.3,1.2l-0.8,1.6l1.5-0.8l1.3,1.2L284.1,823.5z M291.4,818.9l1.4-1
				l-1.8,0l-0.5-1.7l-0.5,1.7l-1.8,0l1.4,1l-0.6,1.7l1.4-1.1l1.4,1.1L291.4,818.9z M297.9,813.3l1.3-1.2l-1.7,0.3l-0.8-1.6l-0.3,1.7
				l-1.7,0.2l1.6,0.8l-0.3,1.7l1.3-1.2l1.5,0.8L297.9,813.3z M303.6,806.8l1.1-1.4L303,806l-1-1.5l0,1.8l-1.7,0.5l1.7,0.6l-0.1,1.8
				l1.1-1.4l1.6,0.6L303.6,806.8z M308.3,799.7l0.9-1.5l-1.6,0.7l-1.2-1.3l0.2,1.7L305,800l1.7,0.3l0.2,1.8l0.9-1.5l1.7,0.4
				L308.3,799.7z M312,791.9l0.7-1.6l-1.5,1l-1.3-1.1l0.4,1.7l-1.5,0.9l1.8,0.1l0.4,1.7l0.6-1.6l1.8,0.1L312,791.9z M314.6,783.7
				l0.4-1.7l-1.3,1.2l-1.5-1l0.7,1.6l-1.4,1.1l1.8-0.1l0.6,1.6l0.4-1.7l1.8-0.1L314.6,783.7z M316,775.2l0.2-1.8l-1.2,1.3l-1.6-0.7
				l0.9,1.5l-1.2,1.3l1.7-0.4l0.9,1.5l0.2-1.8l1.7-0.3L316,775.2z M316.2,766.6l0-1.8l-1,1.5l-1.7-0.5l1.1,1.4l-1,1.4l1.6-0.6
				l1.1,1.4l-0.1-1.8l1.7-0.6L316.2,766.6z M315.2,758l-0.3-1.7l-0.8,1.6l-1.7-0.3l1.3,1.2l-0.8,1.6l1.5-0.8l1.3,1.2l-0.3-1.7
				l1.6-0.8L315.2,758z M313,749.7l-0.5-1.7l-0.5,1.7l-1.8,0l1.4,1l-0.6,1.7l1.4-1.1l1.4,1.1l-0.6-1.7l1.4-1L313,749.7z
				 M309.7,741.7l-0.8-1.6l-0.3,1.7l-1.7,0.2l1.6,0.8l-0.3,1.7l1.3-1.2l1.5,0.8l-0.8-1.6l1.3-1.2L309.7,741.7z M305.3,734.3l-1-1.5
				l0,1.8l-1.7,0.5l1.7,0.6l-0.1,1.8l1.1-1.4l1.6,0.6l-1-1.4l1.1-1.4L305.3,734.3z M299.9,727.6l-1.2-1.3l0.2,1.7l-1.6,0.7l1.7,0.3
				l0.2,1.8l0.9-1.5l1.7,0.4l-1.2-1.3l0.9-1.5L299.9,727.6z M293.7,721.7l-1.3-1.2l0.4,1.7l-1.5,0.9l1.8,0.1l0.4,1.7l0.6-1.6
				l1.8,0.1l-1.4-1.1l0.7-1.6L293.7,721.7z M286.6,716.7l-1.5-1l0.7,1.6l-1.4,1.1l1.8-0.1l0.6,1.6l0.4-1.7l1.8-0.1l-1.5-0.9l0.4-1.7
				L286.6,716.7z M279,712.8l-1.6-0.7l0.9,1.5l-1.2,1.3l1.7-0.4l0.9,1.5l0.2-1.8l1.7-0.3l-1.6-0.7l0.2-1.8L279,712.8z M270.9,709.9
				l-1.7-0.5l1.1,1.4l-1,1.4l1.6-0.6l1.1,1.4l-0.1-1.8l1.7-0.6l-1.7-0.5l0-1.8L270.9,709.9z M262.4,708.2l-1.7-0.3l1.3,1.2l-0.8,1.6
				l1.5-0.8l1.3,1.2l-0.3-1.7l1.6-0.8l-1.7-0.2l-0.3-1.7L262.4,708.2z M254.4,828.5l0.5,1.7l1.8,0l-1.4,1l0.6,1.7l-1.4-1.1l-1.4,1.1
				l0.6-1.7l-1.4-1l1.8,0L254.4,828.5z M243.6,829.3l-1.7,0.2l1.6,0.8l-0.3,1.7l1.3-1.2l1.5,0.8l-0.8-1.6l1.3-1.2l-1.7,0.3l-0.8-1.6
				L243.6,829.3z M233.6,826.6l-1.7,0.5l1.7,0.6l-0.1,1.8l1.1-1.4l1.6,0.6l-1-1.4l1.1-1.4l-1.7,0.5l-1-1.5L233.6,826.6z
				 M274.1,826.2l-1.7-0.5l1.1,1.4l-1,1.4l1.6-0.6l1.1,1.4l-0.1-1.8l1.7-0.6l-1.7-0.5l0-1.8L274.1,826.2z M264.1,829.1l-1.7-0.3
				l1.3,1.2l-0.8,1.6l1.5-0.8l1.3,1.2l-0.3-1.7l1.6-0.8l-1.7-0.2l-0.3-1.7L264.1,829.1z"/>
		</g>
		<g>
			<path fill="#231F20" d="M162.3,745.7c-8.6,1.8-30.2,6-30.2,6c-7.9,0-7.6,4.1-7.5,17.7c-0.1,13.6-0.4,17.7,7.5,17.7
				c0,0,21.6,4.4,30.2,6c3.1,0.6,5.9,1.3,8.3,2v-51.4C168.2,744.4,165.4,745.1,162.3,745.7z"/>
			<path fill="#231F20" d="M346.8,745.7c8.6,1.8,30.2,6,30.2,6c7.9,0,7.6,4.1,7.5,17.7c0.1,13.6,0.4,17.7-7.5,17.7
				c0,0-21.6,4.4-30.2,6c-3.1,0.6-5.9,1.3-8.3,2v-51.4C340.9,744.4,343.6,745.1,346.8,745.7z"/>
		</g>
	</g>
	<g>
		<path fill="#231F20" d="M890.7,725.5c0,0-17.8,0.2-30.2,0c-29.5-0.5-56.6-17.1-85.1-32.5c-37.6-20.3-60.4-21.3-67.8-21.3
			c-7.5,0-30.2,0.9-67.8,21.3c-28.5,15.4-55.6,32-85.1,32.5c-12.4,0.2-30.2,0-30.2,0c-11,0-10.6,19.4-10.5,43.9
			c-0.1,24.5-0.5,43.9,10.5,43.9c0,0,17.8-0.2,30.2,0c29.5,0.5,56.6,17.1,85.1,32.5c37.6,20.3,60.4,21.3,67.8,21.3
			c7.5,0,30.2-0.9,67.8-21.3c28.5-15.4,55.6-32,85.1-32.5c12.4-0.2,30.2,0,30.2,0c11,0,9.7-19.4,9.5-43.9
			C900.4,744.9,901.8,725.5,890.7,725.5z"/>
		<g>
			<g>
				<g>
					<path fill="#FBB040" d="M860.3,734.1c-29.5-0.5-56.6-17.1-85.1-32.5c-37.6-20.3-60.4-21.3-67.8-21.3c-7.5,0-30.2,0.9-67.8,21.3
						c-28.5,15.4-55.6,32-85.1,32.5c-6.1,0.1-22.7,0.1-38.2,0.1c-0.5,1.4-0.9,3-1.2,4.7c15.8,0,33.2,0,39.4-0.1
						c29.5-0.5,56.6-17.1,85.1-32.5c37.6-20.3,60.4-21.3,67.8-21.3c7.5,0,30.2,0.9,67.8,21.3c28.5,15.4,55.6,32,85.1,32.5
						c6.2,0.1,23.3,0.1,39,0.1c-0.3-1.8-0.6-3.3-1.1-4.7C882.8,734.3,866.3,734.2,860.3,734.1z"/>
				</g>
				<g>
					<path fill="#FBB040" d="M860.3,804.7c-29.5,0.5-56.6,17.1-85.1,32.5c-37.6,20.3-60.4,21.3-67.8,21.3c-7.5,0-30.2-0.9-67.8-21.3
						c-28.5-15.4-55.6-32-85.1-32.5c-6.1-0.1-22.7-0.1-38.2-0.1c-0.5-1.4-0.9-3-1.2-4.7c15.8,0,33.2,0,39.4,0.1
						c29.5,0.5,56.6,17.1,85.1,32.5c37.6,20.3,60.4,21.3,67.8,21.3c7.5,0,30.2-0.9,67.8-21.3c28.5-15.4,55.6-32,85.1-32.5
						c6.2-0.1,23.3-0.1,39-0.1c-0.3,1.8-0.6,3.3-1.1,4.7C882.8,804.6,866.3,804.6,860.3,804.7z"/>
				</g>
			</g>
		</g>
		<g>
			<circle fill="#FBB040" cx="539" cy="769.4" r="22"/>
			<circle fill="#FBB040" cx="875.4" cy="769.4" r="22"/>
		</g>
		<path fill="#FBB040" d="M841.4,744.6c0,0-22.8-5.6-33.1-8.5c-22.2-6.3-25.6-14.3-47.8-26.3c-29.4-15.9-47.2-16.6-53-16.6
			c-5.8,0-23.6,0.7-53,16.6c-22.2,12-23.1,19.9-47.8,26.3c-9.4,2.5-33.1,8.5-33.1,8.5c-8.6,0-8.3,5.7-8.2,24.9
			c-0.1,19.2-0.4,24.9,8.2,24.9c0,0,23.6,6.1,33.1,8.5c23.4,5.8,25.6,14.3,47.8,26.3c29.4,15.9,47.2,16.6,53,16.6
			c5.8,0,23.6-0.7,53-16.6c22.2-12,25.5-20.6,47.8-26.3c11.2-2.9,33.1-8.5,33.1-8.5c8.6,0,7.6-5.7,7.5-24.9
			C849,750.3,850.1,744.6,841.4,744.6z"/>
		<path fill="#231F20" d="M841,753.4c-0.1-0.5-0.4-0.7-0.9-0.8c-0.5-0.1-0.9-0.2-1.4-0.3c-0.2-0.1-22.8-5.6-33.3-8.6
			c-14.8-4.2-22.1-9.3-30.5-15.1c-4.9-3.4-10.5-7.3-18.7-11.7c-18.4-9.9-35.6-15.5-48.7-15.8v0c-0.1,0-0.2,0-0.3,0
			c-0.1,0-0.2,0-0.3,0v0c-13.1,0.3-30.4,5.9-48.7,15.8c-8.1,4.4-13.7,8.3-18.7,11.7c-8.4,5.9-15.7,11-30.5,15.1
			c-10.5,3-33,8.5-33.3,8.6c-0.4,0.1-0.8,0.3-1.4,0.3c-0.5,0.1-0.8,0.4-0.9,0.8c-0.3,2.5-0.3,29.7,0,32.2c0.1,0.5,0.4,0.7,0.9,0.8
			c0.5,0.1,0.9,0.2,1.4,0.3c0.2,0.1,22.8,5.6,33.3,8.6c14.8,4.2,22.1,9.3,30.5,15.1c4.9,3.4,10.5,7.3,18.7,11.7
			c18.4,9.9,35.6,15.5,48.7,15.8v0c0.1,0,0.2,0,0.3,0c0.1,0,0.2,0,0.3,0v0c13.1-0.3,30.4-5.9,48.7-15.8c8.1-4.4,13.7-8.3,18.7-11.7
			c8.4-5.9,15.7-11,30.5-15.1c10.5-3,33-8.5,33.3-8.6c0.4-0.1,0.8-0.3,1.4-0.3c0.5-0.1,0.8-0.4,0.9-0.8
			C841.3,783,841.3,755.9,841,753.4z M839.2,784.9c-0.2,0.1-23.8,5.6-34.3,8.6c-15.1,4.3-22.5,9.4-31.1,15.4
			c-4.9,3.4-10.4,7.3-18.5,11.6c-18.2,9.8-35.2,15.3-48.1,15.6c-12.9-0.2-29.9-5.7-48.1-15.6c-8.1-4.4-13.6-8.2-18.5-11.6
			c-8.6-6-16-11.1-31.1-15.4c-10.5-3-34.1-8.5-34.3-8.6c-0.3-0.1-0.3-30.8,0-30.8c0.2-0.1,23.8-5.6,34.3-8.6
			c15.1-4.3,22.5-9.4,31.1-15.4c4.9-3.4,10.4-7.3,18.5-11.6c18.2-9.8,35.2-15.3,48.1-15.6c12.9,0.2,29.9,5.7,48.1,15.6
			c8.1,4.4,13.6,8.2,18.5,11.6c8.6,6,16,11.1,31.1,15.4c10.5,3,34.1,8.5,34.3,8.6C839.5,754.1,839.5,784.8,839.2,784.9z"/>
		<g>
			<polygon fill="#231F20" points="737.8,816.5 732,782.5 756.7,758.3 722.5,753.4 707.2,722.4 691.9,753.4 657.8,758.3 
				682.5,782.5 676.7,816.5 707.2,800.4 			"/>
			<path fill="#FBB040" d="M759.1,757.6c-0.3-0.9-1.1-1.6-2-1.7l-32.9-4.8l-14.7-29.8c-0.4-0.8-1.3-1.4-2.2-1.4s-1.8,0.5-2.2,1.4
				l-14.7,29.8l-32.9,4.8c-0.9,0.1-1.7,0.8-2,1.7c-0.3,0.9,0,1.9,0.6,2.6l23.8,23.2l-5.6,32.8c-0.2,0.9,0.2,1.9,1,2.4
				c0.4,0.3,0.9,0.5,1.5,0.5c0.4,0,0.8-0.1,1.2-0.3l29.4-15.5l29.4,15.5c0.4,0.2,0.8,0.3,1.2,0.3c0.5,0,1-0.2,1.5-0.5
				c0.8-0.6,1.1-1.5,1-2.4l-5.6-32.8l23.8-23.2C759.1,759.5,759.4,758.5,759.1,757.6z M682.5,782.5l-24.7-24.1l34.2-5l15.3-31
				l15.3,31l34.2,5L732,782.5l5.8,34l-30.6-16.1l-30.6,16.1L682.5,782.5z"/>
		</g>
		<g>
			<g>
				<path fill="#231F20" d="M614.7,751.1h-4.1c-5.4,0-9.9,4.5-9.9,9.9v16.9c0,5.4,4.5,9.9,9.9,9.9h4.1c5.4,0,9.9-4.5,9.9-9.9V761
					C624.6,755.6,620.2,751.1,614.7,751.1z"/>
				<path fill="#231F20" d="M803.9,751.1h-4.1c-5.4,0-9.9,4.5-9.9,9.9v16.9c0,5.4,4.5,9.9,9.9,9.9h4.1c5.4,0,9.9-4.5,9.9-9.9V761
					C813.7,755.6,809.3,751.1,803.9,751.1z"/>
			</g>
		</g>
	</g>
	<g>
		<path fill="#231F20" d="M1329,726.2c0,0-17.8,0.2-30.2,0c-29.5-0.5-56.6-17.1-85.1-32.5c-37.6-20.3-60.4-21.3-67.8-21.3
			c-7.5,0-30.2,0.9-67.8,21.3c-28.5,15.4-55.6,32-85.1,32.5c-12.4,0.2-30.2,0-30.2,0c-11,0-10.6,19.4-10.5,43.9
			c-0.1,24.5-0.5,43.9,10.5,43.9c0,0,17.8-0.2,30.2,0c29.5,0.5,56.6,17.1,85.1,32.5c37.6,20.3,60.4,21.3,67.8,21.3
			c7.5,0,30.2-0.9,67.8-21.3c28.5-15.4,55.6-32,85.1-32.5c12.4-0.2,30.2,0,30.2,0c11,0,9.7-19.4,9.5-43.9
			C1338.7,745.6,1340,726.2,1329,726.2z"/>
		<g>
			<g>
				<g>
					<path fill="#FBB040" d="M1298.5,734.9c-29.5-0.5-56.6-17.1-85.1-32.5c-37.6-20.3-60.4-21.3-67.8-21.3
						c-7.5,0-30.2,0.9-67.8,21.3c-28.5,15.4-55.6,32-85.1,32.5c-6.1,0.1-22.7,0.1-38.2,0.1c-0.5,1.4-0.9,3-1.2,4.7
						c15.8,0,33.2,0,39.4-0.1c29.5-0.5,56.6-17.1,85.1-32.5c37.6-20.3,60.4-21.3,67.8-21.3c7.5,0,30.2,0.9,67.8,21.3
						c28.5,15.4,55.6,32,85.1,32.5c6.2,0.1,23.3,0.1,39,0.1c-0.3-1.8-0.6-3.3-1.1-4.7C1321.1,735,1304.6,735,1298.5,734.9z"/>
				</g>
				<g>
					<path fill="#FBB040" d="M1298.5,805.5c-29.5,0.5-56.6,17.1-85.1,32.5c-37.6,20.3-60.4,21.3-67.8,21.3
						c-7.5,0-30.2-0.9-67.8-21.3c-28.5-15.4-55.6-32-85.1-32.5c-6.1-0.1-22.7-0.1-38.2-0.1c-0.5-1.4-0.9-3-1.2-4.7
						c15.8,0,33.2,0,39.4,0.1c29.5,0.5,56.6,17.1,85.1,32.5c37.6,20.3,60.4,21.3,67.8,21.3c7.5,0,30.2-0.9,67.8-21.3
						c28.5-15.4,55.6-32,85.1-32.5c6.2-0.1,23.3-0.1,39-0.1c-0.3,1.8-0.6,3.3-1.1,4.7C1321.1,805.4,1304.6,805.4,1298.5,805.5z"/>
				</g>
			</g>
		</g>
		<path fill="#FBB040" d="M1279.7,745.3c0,0-22.8-5.6-33.1-8.5c-22.2-6.3-25.6-14.3-47.8-26.3c-29.4-15.9-47.2-16.6-53-16.6
			c-5.8,0-23.6,0.7-53,16.6c-22.2,12-23.1,19.9-47.8,26.3c-9.4,2.5-33.1,8.5-33.1,8.5c-8.6,0-8.3,5.7-8.2,24.9
			c-0.1,19.2-0.4,24.9,8.2,24.9c0,0,23.6,6.1,33.1,8.5c23.4,5.8,25.6,14.3,47.8,26.3c29.4,15.9,47.2,16.6,53,16.6
			c5.8,0,23.6-0.7,53-16.6c22.2-12,25.5-20.6,47.8-26.3c11.2-2.9,33.1-8.5,33.1-8.5c8.6,0,7.6-5.7,7.5-24.9
			C1287.3,751,1288.3,745.3,1279.7,745.3z"/>
		<g>
			<polygon fill="#231F20" points="1176,817.2 1170.2,783.2 1194.9,759.1 1160.8,754.1 1145.5,723.1 1130.2,754.1 1096,759.1 
				1120.7,783.2 1114.9,817.2 1145.5,801.1 			"/>
			<path fill="#FBB040" d="M1197.3,758.3c-0.3-0.9-1.1-1.6-2-1.7l-32.9-4.8l-14.7-29.8c-0.4-0.8-1.3-1.4-2.2-1.4s-1.8,0.5-2.2,1.4
				l-14.7,29.8l-32.9,4.8c-0.9,0.1-1.7,0.8-2,1.7c-0.3,0.9,0,1.9,0.6,2.6l23.8,23.2l-5.6,32.8c-0.2,0.9,0.2,1.9,1,2.4
				c0.4,0.3,0.9,0.5,1.5,0.5c0.4,0,0.8-0.1,1.2-0.3l29.4-15.5l29.4,15.5c0.4,0.2,0.8,0.3,1.2,0.3c0.5,0,1-0.2,1.5-0.5
				c0.8-0.6,1.1-1.5,1-2.4l-5.6-32.8l23.8-23.2C1197.4,760.2,1197.6,759.2,1197.3,758.3z M1120.7,783.2l-24.7-24.1l34.2-5l15.3-31
				l15.3,31l34.2,5l-24.7,24.1l5.8,34l-30.6-16.1l-30.6,16.1L1120.7,783.2z"/>
		</g>
		<g>
			<path fill="#231F20" d="M1145.5,847.8c-42.8,0-77.7-34.8-77.7-77.7c0-42.8,34.8-77.7,77.7-77.7s77.7,34.8,77.7,77.7
				C1223.1,813,1188.3,847.8,1145.5,847.8z M1145.5,695.7c-41.1,0-74.5,33.4-74.5,74.5c0,41.1,33.4,74.5,74.5,74.5
				s74.5-33.4,74.5-74.5C1220,729.1,1186.5,695.7,1145.5,695.7z"/>
		</g>
		<g>
			<path fill="#231F20" d="M1145.5,842c-39.8,0-72.1-32.2-72.1-71.8s32.4-71.8,72.1-71.8s72.1,32.2,72.1,71.8S1185.3,842,1145.5,842
				z M1145.5,700.1c-38.8,0-70.4,31.4-70.4,70.1s31.6,70.1,70.4,70.1s70.4-31.4,70.4-70.1S1184.3,700.1,1145.5,700.1z"/>
		</g>
		<g>
			<g>
				<g>
					<g>
						<path fill="#231F20" d="M1051.9,770.2c0-22.1,6.7-41.7,17.1-53.9c-14,9.7-23.7,30.2-23.7,53.9s9.7,44.2,23.7,53.9
							C1058.6,811.8,1051.9,792.2,1051.9,770.2z"/>
					</g>
					<g>
						<path fill="#231F20" d="M1038.8,770.2c0-15.9,4.5-30,11.5-38.8c-9.4,7-15.9,21.8-15.9,38.8s6.5,31.8,15.9,38.8
							C1043.3,800.2,1038.8,786.1,1038.8,770.2z"/>
					</g>
					<g>
						<path fill="#231F20" d="M1029.8,770.2c0-11.9,3.6-22.5,9.2-29.1c-7.6,5.3-12.8,16.3-12.8,29.1s5.2,23.8,12.8,29.1
							C1033.4,792.6,1029.8,782.1,1029.8,770.2z"/>
					</g>
					<g>
						<path fill="#231F20" d="M1022.7,770.2c0-8.6,2.4-16.2,6.2-20.9c-5.1,3.8-8.6,11.7-8.6,20.9s3.5,17.2,8.6,20.9
							C1025.1,786.4,1022.7,778.7,1022.7,770.2z"/>
					</g>
				</g>
				<g>
					<g>
						<path fill="#231F20" d="M1239.1,770.2c0-22.1-6.7-41.7-17.1-53.9c14,9.7,23.7,30.2,23.7,53.9s-9.7,44.2-23.7,53.9
							C1232.3,811.8,1239.1,792.2,1239.1,770.2z"/>
					</g>
					<g>
						<path fill="#231F20" d="M1252.1,770.2c0-15.9-4.5-30-11.5-38.8c9.4,7,15.9,21.8,15.9,38.8s-6.5,31.8-15.9,38.8
							C1247.6,800.2,1252.1,786.1,1252.1,770.2z"/>
					</g>
					<g>
						<path fill="#231F20" d="M1261.2,770.2c0-11.9-3.6-22.5-9.2-29.1c7.6,5.3,12.8,16.3,12.8,29.1s-5.2,23.8-12.8,29.1
							C1257.6,792.6,1261.2,782.1,1261.2,770.2z"/>
					</g>
					<g>
						<path fill="#231F20" d="M1268.2,770.2c0-8.6-2.4-16.2-6.2-20.9c5.1,3.8,8.6,11.7,8.6,20.9s-3.5,17.2-8.6,20.9
							C1265.8,786.4,1268.2,778.7,1268.2,770.2z"/>
					</g>
				</g>
			</g>
		</g>
		<g>
			<g>
				<rect x="966.2" y="748.4" fill="#FBB040" width="8" height="43.5"/>
				<rect x="957.6" y="748.4" fill="#FBB040" width="4" height="43.5"/>
				<rect x="978.8" y="748.4" fill="#FBB040" width="17" height="43.5"/>
			</g>
			<g>
				
					<rect x="1316.8" y="748.4" transform="matrix(-1 -4.509916e-11 4.509916e-11 -1 2641.5281 1540.3158)" fill="#FBB040" width="8" height="43.5"/>
				
					<rect x="1329.3" y="748.4" transform="matrix(-1 -4.487267e-11 4.487267e-11 -1 2662.6003 1540.3158)" fill="#FBB040" width="4" height="43.5"/>
				
					<rect x="1295.2" y="748.4" transform="matrix(-1 -4.494817e-11 4.494817e-11 -1 2607.3767 1540.3158)" fill="#FBB040" width="17" height="43.5"/>
			</g>
		</g>
	</g>
	<g>
		<path fill="#231F20" d="M1329,167.8c0,0-17.8,0.2-30.2,0c-29.5-0.5-56.6-17.1-85.1-32.5c-37.6-20.3-60.4-21.3-67.8-21.3
			c-7.5,0-30.2,0.9-67.8,21.3c-28.5,15.4-55.6,32-85.1,32.5c-12.4,0.2-30.2,0-30.2,0c-11,0-10.6,19.4-10.5,43.9
			c-0.1,24.5-0.5,43.9,10.5,43.9c0,0,17.8-0.2,30.2,0c29.5,0.5,56.6,17.1,85.1,32.5c37.6,20.3,60.4,21.3,67.8,21.3
			c7.5,0,30.2-0.9,67.8-21.3c28.5-15.4,55.6-32,85.1-32.5c12.4-0.2,30.2,0,30.2,0c11,0,9.7-19.4,9.5-43.9
			C1338.7,187.2,1340,167.8,1329,167.8z"/>
		<g>
			<g>
				<g>
					<path fill="#FBB040" d="M1298.5,176.4c-29.5-0.5-56.6-17.1-85.1-32.5c-37.6-20.3-60.4-21.3-67.8-21.3
						c-7.5,0-30.2,0.9-67.8,21.3c-28.5,15.4-55.6,32-85.1,32.5c-6.1,0.1-22.7,0.1-38.2,0.1c-0.5,1.4-0.9,3-1.2,4.7
						c15.8,0,33.2,0,39.4-0.1c29.5-0.5,56.6-17.1,85.1-32.5c37.6-20.3,60.4-21.3,67.8-21.3c7.5,0,30.2,0.9,67.8,21.3
						c28.5,15.4,55.6,32,85.1,32.5c6.2,0.1,23.3,0.1,39,0.1c-0.3-1.8-0.6-3.3-1.1-4.7C1321.1,176.5,1304.6,176.5,1298.5,176.4z"/>
				</g>
				<g>
					<path fill="#FBB040" d="M1298.5,247c-29.5,0.5-56.6,17.1-85.1,32.5c-37.6,20.3-60.4,21.3-67.8,21.3c-7.5,0-30.2-0.9-67.8-21.3
						c-28.5-15.4-55.6-32-85.1-32.5c-6.1-0.1-22.7-0.1-38.2-0.1c-0.5-1.4-0.9-3-1.2-4.7c15.8,0,33.2,0,39.4,0.1
						c29.5,0.5,56.6,17.1,85.1,32.5c37.6,20.3,60.4,21.3,67.8,21.3c7.5,0,30.2-0.9,67.8-21.3c28.5-15.4,55.6-32,85.1-32.5
						c6.2-0.1,23.3-0.1,39-0.1c-0.3,1.8-0.6,3.3-1.1,4.7C1321.1,246.9,1304.6,246.9,1298.5,247z"/>
				</g>
			</g>
		</g>
		<circle fill="#FBB040" cx="1145.5" cy="211.7" r="89.7"/>
		<g>
			<path fill="#231F20" d="M1145.5,289.4c-42.8,0-77.7-34.8-77.7-77.7c0-42.8,34.8-77.7,77.7-77.7s77.7,34.8,77.7,77.7
				C1223.1,254.5,1188.3,289.4,1145.5,289.4z M1145.5,137.2c-41.1,0-74.5,33.4-74.5,74.5c0,41.1,33.4,74.5,74.5,74.5
				s74.5-33.4,74.5-74.5C1220,170.6,1186.5,137.2,1145.5,137.2z"/>
		</g>
		<g>
			<path fill="#231F20" d="M1145.5,283.5c-39.8,0-72.1-32.2-72.1-71.8s32.4-71.8,72.1-71.8s72.1,32.2,72.1,71.8
				S1185.3,283.5,1145.5,283.5z M1145.5,141.6c-38.8,0-70.4,31.4-70.4,70.1s31.6,70.1,70.4,70.1s70.4-31.4,70.4-70.1
				S1184.3,141.6,1145.5,141.6z"/>
		</g>
		<g>
			<g>
				<g>
					<path fill="#FBB040" d="M1049.9,211.7c0-20.2,6.9-38.1,17.4-49.2c-14.3,8.9-24.2,27.6-24.2,49.2s9.9,40.3,24.2,49.2
						C1056.8,249.8,1049.9,231.9,1049.9,211.7z"/>
				</g>
				<g>
					<path fill="#FBB040" d="M1036.6,211.7c0-14.5,4.6-27.4,11.7-35.5c-9.6,6.4-16.3,19.9-16.3,35.5s6.6,29.1,16.3,35.5
						C1041.2,239.1,1036.6,226.2,1036.6,211.7z"/>
				</g>
				<g>
					<path fill="#FBB040" d="M1027.3,211.7c0-10.9,3.7-20.5,9.4-26.6c-7.7,4.8-13,14.9-13,26.6s5.3,21.8,13,26.6
						C1031,232.2,1027.3,222.6,1027.3,211.7z"/>
				</g>
				<g>
					<path fill="#FBB040" d="M1020.1,211.7c0-7.8,2.5-14.8,6.3-19.1c-5.2,3.5-8.8,10.7-8.8,19.1s3.6,15.7,8.8,19.1
						C1022.6,226.5,1020.1,219.5,1020.1,211.7z"/>
				</g>
				<g>
					<circle fill="#FBB040" cx="967.5" cy="211.7" r="6.9"/>
					<circle fill="#FBB040" cx="986.8" cy="211.7" r="6.9"/>
					<circle fill="#FBB040" cx="1006.1" cy="211.7" r="6.9"/>
				</g>
			</g>
			<g>
				<g>
					<path fill="#FBB040" d="M1241,211.7c0-20.2-6.9-38.1-17.4-49.2c14.3,8.9,24.2,27.6,24.2,49.2s-9.9,40.3-24.2,49.2
						C1234.2,249.8,1241,231.9,1241,211.7z"/>
				</g>
				<g>
					<path fill="#FBB040" d="M1254.4,211.7c0-14.5-4.6-27.4-11.7-35.5c9.6,6.4,16.3,19.9,16.3,35.5s-6.6,29.1-16.3,35.5
						C1249.8,239.1,1254.4,226.2,1254.4,211.7z"/>
				</g>
				<g>
					<path fill="#FBB040" d="M1263.6,211.7c0-10.9-3.7-20.5-9.4-26.6c7.7,4.8,13,14.9,13,26.6s-5.3,21.8-13,26.6
						C1259.9,232.2,1263.6,222.6,1263.6,211.7z"/>
				</g>
				<g>
					<path fill="#FBB040" d="M1270.8,211.7c0-7.8-2.5-14.8-6.3-19.1c5.2,3.5,8.8,10.7,8.8,19.1s-3.6,15.7-8.8,19.1
						C1268.3,226.5,1270.8,219.5,1270.8,211.7z"/>
				</g>
				<g>
					<circle fill="#FBB040" cx="1323.4" cy="211.7" r="6.9"/>
					<circle fill="#FBB040" cx="1304.1" cy="211.7" r="6.9"/>
					<circle fill="#FBB040" cx="1284.8" cy="211.7" r="6.9"/>
				</g>
			</g>
		</g>
		<g>
			<polygon fill="#FBB040" points="1174.5,251.3 1169,219 1192.5,196 1160,191.3 1145.5,161.9 1130.9,191.3 1098.4,196 1122,219 
				1116.4,251.3 1145.5,236 			"/>
			<path fill="#231F20" d="M1194.7,195.3c-0.3-0.9-1-1.5-1.9-1.6l-31.3-4.5l-14-28.3c-0.4-0.8-1.2-1.3-2.1-1.3s-1.7,0.5-2.1,1.3
				l-14,28.3l-31.3,4.5c-0.9,0.1-1.6,0.8-1.9,1.6c-0.3,0.9,0,1.8,0.6,2.4l22.6,22.1l-5.3,31.1c-0.2,0.9,0.2,1.8,0.9,2.3
				c0.4,0.3,0.9,0.5,1.4,0.5c0.4,0,0.8-0.1,1.1-0.3l28-14.7l28,14.7c0.3,0.2,0.7,0.3,1.1,0.3c0.5,0,1-0.2,1.4-0.5
				c0.7-0.5,1.1-1.4,0.9-2.3l-5.3-31.1l22.6-22.1C1194.8,197.1,1195,196.2,1194.7,195.3z M1122,219l-23.5-22.9l32.5-4.7l14.5-29.4
				l14.5,29.4l32.5,4.7L1169,219l5.6,32.4l-29.1-15.3l-29.1,15.3L1122,219z"/>
		</g>
	</g>
	<g>
		<path fill="#231F20" d="M1329,456.1c0,0-17.8,0.2-30.2,0c-29.5-0.4-56.6-13.3-85.1-25.3c-37.6-15.8-60.4-16.6-67.8-16.6
			c-7.5,0-30.2,0.7-67.8,16.6c-28.5,12-55.6,24.9-85.1,25.3c-12.4,0.2-30.2,0-30.2,0c-11,0-10.6,15.1-10.5,34.2
			c-0.1,19.1-0.5,34.2,10.5,34.2c0,0,17.8-0.2,30.2,0c29.5,0.4,56.6,13.3,85.1,25.3c37.6,15.8,60.4,16.6,67.8,16.6
			c7.5,0,30.2-0.7,67.8-16.6c28.5-12,55.6-24.9,85.1-25.3c12.4-0.2,30.2,0,30.2,0c11,0,9.7-15.1,9.5-34.2
			C1338.7,471.2,1340,456.1,1329,456.1z"/>
		<g>
			<g>
				<g>
					<path fill="#FBB040" d="M1298.5,462.8c-29.5-0.4-56.6-13.3-85.1-25.3c-37.6-15.8-60.4-16.6-67.8-16.6
						c-7.5,0-30.2,0.7-67.8,16.6c-28.5,12-55.6,24.9-85.1,25.3c-6.1,0.1-22.7,0.1-38.2,0.1c-0.5,1.1-0.9,2.3-1.2,3.7
						c15.8,0,33.2,0,39.4-0.1c29.5-0.4,56.6-13.3,85.1-25.3c37.6-15.8,60.4-16.6,67.8-16.6c7.5,0,30.2,0.7,67.8,16.6
						c28.5,12,55.6,24.9,85.1,25.3c6.2,0.1,23.3,0.1,39,0.1c-0.3-1.4-0.6-2.6-1.1-3.7C1321.1,462.9,1304.6,462.9,1298.5,462.8z"/>
				</g>
				<g>
					<path fill="#FBB040" d="M1298.5,517.8c-29.5,0.4-56.6,13.3-85.1,25.3c-37.6,15.8-60.4,16.6-67.8,16.6
						c-7.5,0-30.2-0.7-67.8-16.6c-28.5-12-55.6-24.9-85.1-25.3c-6.1-0.1-22.7-0.1-38.2-0.1c-0.5-1.1-0.9-2.3-1.2-3.7
						c15.8,0,33.2,0,39.4,0.1c29.5,0.4,56.6,13.3,85.1,25.3c37.6,15.8,60.4,16.6,67.8,16.6c7.5,0,30.2-0.7,67.8-16.6
						c28.5-12,55.6-24.9,85.1-25.3c6.2-0.1,23.3-0.1,39-0.1c-0.3,1.4-0.6,2.6-1.1,3.7C1321.1,517.7,1304.6,517.7,1298.5,517.8z"/>
				</g>
			</g>
		</g>
		<ellipse fill="#FBB040" cx="1145.5" cy="490.3" rx="76.4" ry="58"/>
		<g>
			<path fill="#231F20" d="M1145.5,546.1c-40.3,0-73.2-25-73.2-55.8s32.8-55.8,73.2-55.8s73.2,25,73.2,55.8
				S1185.8,546.1,1145.5,546.1z M1145.5,436.1c-39.5,0-71.7,24.3-71.7,54.2c0,29.9,32.2,54.2,71.7,54.2c39.5,0,71.7-24.3,71.7-54.2
				C1217.1,460.4,1185,436.1,1145.5,436.1z"/>
		</g>
		<g>
			<path fill="#231F20" d="M1145.5,532.2c-33.3,0-60.4-18.8-60.4-41.9c0-23.1,27.1-41.9,60.4-41.9s60.4,18.8,60.4,41.9
				C1205.9,513.4,1178.8,532.2,1145.5,532.2z M1145.5,449.2c-32.9,0-59.7,18.4-59.7,41.1c0,22.7,26.8,41.1,59.7,41.1
				c32.9,0,59.7-18.4,59.7-41.1C1205.2,467.6,1178.4,449.2,1145.5,449.2z"/>
		</g>
		<g>
			<polygon fill="#FBB040" points="1163.9,520.8 1160.4,498.7 1175.2,483.1 1154.7,479.9 1145.5,459.8 1136.3,479.9 1115.7,483.1 
				1130.6,498.7 1127.1,520.8 1145.5,510.4 			"/>
			<path fill="#231F20" d="M1176.7,482.6c-0.2-0.6-0.6-1-1.2-1.1l-19.8-3.1l-8.9-19.3c-0.3-0.6-0.8-0.9-1.3-0.9s-1.1,0.3-1.3,0.9
				l-8.9,19.3l-19.8,3.1c-0.6,0.1-1,0.5-1.2,1.1c-0.2,0.6,0,1.2,0.4,1.7l14.3,15l-3.4,21.2c-0.1,0.6,0.1,1.2,0.6,1.6
				c0.3,0.2,0.6,0.3,0.9,0.3c0.2,0,0.5-0.1,0.7-0.2l17.7-10l17.7,10c0.2,0.1,0.5,0.2,0.7,0.2c0.3,0,0.6-0.1,0.9-0.3
				c0.5-0.4,0.7-1,0.6-1.6l-3.4-21.2l14.3-15C1176.7,483.8,1176.8,483.2,1176.7,482.6z M1130.6,498.7l-14.9-15.6l20.6-3.2l9.2-20.1
				l9.2,20.1l20.6,3.2l-14.9,15.6l3.5,22.1l-18.4-10.4l-18.4,10.4L1130.6,498.7z"/>
		</g>
		<path fill="#231F20" d="M1145.2,438.1l0.6,2.2l2.1,0l-1.7,1.3l0.7,2.2l-1.7-1.4l-1.7,1.4l0.7-2.2l-1.7-1.3l2.1,0L1145.2,438.1z
			 M1134.2,441.2l-2.1,0.3l1.9,1.1l-0.4,2.3l1.5-1.6l1.9,1.1l-1-2.1l1.6-1.6l-2.1,0.3l-0.9-2.1L1134.2,441.2z M1123.1,443.7
			l-2.1,0.6l2,0.8l-0.1,2.3l1.3-1.8l2,0.8l-1.2-1.9l1.3-1.8l-2,0.7l-1.2-1.9L1123.1,443.7z M1112.4,447.6l-2,0.9l2.1,0.4l0.2,2.3
			l1-2l2.1,0.5l-1.4-1.7l1.1-2l-1.9,1l-1.4-1.7L1112.4,447.6z M1103.2,453l-1.8,1.2l2.1,0.1l0.5,2.2l0.8-2.1l2.1,0.2l-1.7-1.5
			l0.8-2.1l-1.8,1.2l-1.6-1.5L1103.2,453z M1094.9,459.7l-1.7,1.5l2.1-0.2l0.8,2.1l0.5-2.2l2.1-0.1l-1.8-1.2l0.5-2.2l-1.6,1.5
			l-1.8-1.2L1094.9,459.7z M1087.5,467.6l-1.4,1.7l2.1-0.5l1,2l0.2-2.3l2.1-0.4l-2-0.9l0.3-2.3l-1.4,1.7l-1.9-1L1087.5,467.6z
			 M1081.1,476.5l-1.2,1.9l2-0.8l1.3,1.8l-0.1-2.3l2-0.8l-2.1-0.6l0-2.3l-1.2,1.9l-2-0.7L1081.1,476.5z M1079,489.7l2,0.9l-1.1-2
			l1.4-1.7l-2.1,0.5l-1.1-2l-0.2,2.3l-2.1,0.5l2,0.9l-0.2,2.3L1079,489.7z M1080.2,502.8l1,2l0.2-2.3l2.1-0.5l-2-0.9l0.2-2.3
			l-1.4,1.7l-1.9-1l1.1,2l-1.4,1.7L1080.2,502.8z M1086.1,512l1.3,1.8l-0.1-2.3l2-0.8l-2.1-0.6l0-2.3l-1.2,1.9l-2-0.7l1.3,1.8
			l-1.2,1.9L1086.1,512z M1093.2,520.2l1.5,1.6l-0.4-2.3l1.9-1.1l-2.1-0.3l-0.3-2.3l-0.9,2.1l-2.1-0.3l1.6,1.6l-1,2.1L1093.2,520.2z
			 M1101.2,527.4l1.7,1.4l-0.7-2.2l1.7-1.3l-2.1,0l-0.6-2.2l-0.6,2.2l-2.1,0l1.7,1.3l-0.7,2.2L1101.2,527.4z M1111.1,533.2l1.9,1.1
			l-1-2.1l1.6-1.6l-2.1,0.4l-0.9-2.1l-0.3,2.3l-2.1,0.3l1.9,1.1l-0.4,2.3L1111.1,533.2z M1181.2,531.3l1.9-1.1l-2.1-0.3l-0.3-2.3
			l-0.9,2.1l-2.1-0.3l1.6,1.6l-1,2.1l1.9-1.1l1.5,1.6L1181.2,531.3z M1190.9,526.3l1.7-1.3l-2.1,0l-0.6-2.2l-0.6,2.2l-2.1,0l1.7,1.3
			l-0.7,2.2l1.7-1.4l1.7,1.4L1190.9,526.3z M1198.8,519l1.6-1.6l-2.1,0.3l-0.9-2.1l-0.3,2.3l-2.1,0.3l1.9,1.1l-0.4,2.3l1.5-1.6
			l1.9,1.1L1198.8,519z M1205.7,510.6l1.3-1.8l-2,0.7l-1.2-1.9l0,2.3l-2.1,0.6l2,0.8l-0.1,2.3l1.3-1.8l2,0.8L1205.7,510.6z
			 M1211.4,501.2l1.1-2l-1.9,1l-1.4-1.7l0.3,2.3l-2,0.9l2.1,0.4l0.2,2.3l1-2l2.1,0.5L1211.4,501.2z M1213.1,488.7l2-0.9l-2.1-0.5
			l-0.2-2.3l-1.1,2l-2.1-0.5l1.4,1.7l-1.1,2l2-0.9l1.4,1.8L1213.1,488.7z M1209.6,475l-1.2-1.9l0,2.3l-2.1,0.6l2,0.8l-0.1,2.3
			l1.3-1.8l2,0.8l-1.2-1.9l1.3-1.8L1209.6,475z M1203.1,466.3l-1.4-1.7l0.3,2.3l-2,0.9l2.1,0.4l0.2,2.3l1-2l2.1,0.5l-1.4-1.7l1.1-2
			L1203.1,466.3z M1194.6,458.6l-1.6-1.5l0.5,2.2l-1.8,1.2l2.1,0.1l0.5,2.2l0.8-2.1l2.1,0.2l-1.7-1.5l0.8-2.1L1194.6,458.6z
			 M1185.2,452.1l-1.8-1.2l0.8,2.1l-1.7,1.5l2.1-0.2l0.8,2.1l0.5-2.2l2.1-0.1l-1.8-1.2l0.5-2.2L1185.2,452.1z M1175.9,446.9l-1.9-1
			l1.1,2l-1.4,1.7l2.1-0.5l1,2l0.2-2.3l2.1-0.4l-2-0.9l0.3-2.3L1175.9,446.9z M1166.1,443.2l-2-0.7l1.3,1.8l-1.2,1.9l2-0.8l1.3,1.8
			l-0.1-2.3l2-0.8l-2.1-0.6l0-2.3L1166.1,443.2z M1154.9,441l-2.1-0.3l1.6,1.6l-1,2.1l1.9-1.1l1.5,1.6l-0.4-2.3l1.9-1.1l-2.1-0.3
			l-0.3-2.3L1154.9,441z M1145.2,536.8l0.6,2.2l2.1,0l-1.7,1.3l0.7,2.2l-1.7-1.4l-1.7,1.4l0.7-2.2l-1.7-1.3l2.1,0L1145.2,536.8z
			 M1132.2,537.8l-2.1,0.3l1.9,1.1l-0.4,2.3l1.5-1.6l1.9,1.1l-1-2.1l1.6-1.6l-2.1,0.3l-0.9-2.1L1132.2,537.8z M1120.1,535.3
			l-2.1,0.6l2,0.8l-0.1,2.3l1.3-1.8l2,0.8l-1.2-1.9l1.3-1.8l-2,0.7l-1.2-1.9L1120.1,535.3z M1169.1,534.8l-2-0.7l1.3,1.8l-1.2,1.9
			l2-0.8l1.3,1.8l-0.1-2.3l2-0.8l-2.1-0.6l0-2.3L1169.1,534.8z M1156.9,537.5l-2.1-0.3l1.6,1.6l-1,2.1l1.9-1.1l1.5,1.6l-0.4-2.3
			l1.9-1.1l-2.1-0.3l-0.3-2.3L1156.9,537.5z"/>
		<g>
			<g>
				<g>
					<g>
						<path fill="#FBB040" d="M1060.5,490.3c0-15.6,6.1-29.5,15.5-38.2c-12.7,6.9-21.5,21.4-21.5,38.2c0,16.8,8.8,31.3,21.5,38.2
							C1066.6,519.8,1060.5,505.9,1060.5,490.3z"/>
					</g>
					<g>
						<path fill="#FBB040" d="M1048.6,490.3c0-11.3,4.1-21.3,10.4-27.5c-8.6,5-14.5,15.4-14.5,27.5s5.9,22.5,14.5,27.5
							C1052.7,511.6,1048.6,501.6,1048.6,490.3z"/>
					</g>
					<g>
						<path fill="#FBB040" d="M1040.4,490.3c0-8.4,3.3-15.9,8.4-20.6c-6.9,3.7-11.6,11.5-11.6,20.6s4.7,16.9,11.6,20.6
							C1043.7,506.2,1040.4,498.7,1040.4,490.3z"/>
					</g>
					<g>
						<path fill="#FBB040" d="M1034,490.3c0-6.1,2.2-11.5,5.6-14.8c-4.6,2.7-7.8,8.3-7.8,14.8c0,6.5,3.2,12.2,7.8,14.8
							C1036.2,501.8,1034,496.4,1034,490.3z"/>
					</g>
				</g>
				<g>
					<g>
						<path fill="#FBB040" d="M1230.5,490.3c0-15.6-6.1-29.5-15.5-38.2c12.7,6.9,21.5,21.4,21.5,38.2c0,16.8-8.8,31.3-21.5,38.2
							C1224.4,519.8,1230.5,505.9,1230.5,490.3z"/>
					</g>
					<g>
						<path fill="#FBB040" d="M1242.3,490.3c0-11.3-4.1-21.3-10.4-27.5c8.6,5,14.5,15.4,14.5,27.5s-5.9,22.5-14.5,27.5
							C1238.2,511.6,1242.3,501.6,1242.3,490.3z"/>
					</g>
					<g>
						<path fill="#FBB040" d="M1250.5,490.3c0-8.4-3.3-15.9-8.4-20.6c6.9,3.7,11.6,11.5,11.6,20.6s-4.7,16.9-11.6,20.6
							C1247.3,506.2,1250.5,498.7,1250.5,490.3z"/>
					</g>
					<g>
						<path fill="#FBB040" d="M1257,490.3c0-6.1-2.2-11.5-5.6-14.8c4.6,2.7,7.8,8.3,7.8,14.8c0,6.5-3.2,12.2-7.8,14.8
							C1254.7,501.8,1257,496.4,1257,490.3z"/>
					</g>
				</g>
			</g>
		</g>
		<g>
			<g>
				<g>
					<g>
						<g>
							<polygon fill="#FBB040" points="987.5,480.4 984.3,480.4 983.3,477.2 982.4,480.4 979.2,480.4 981.8,482.4 980.8,485.7 
								983.3,483.7 985.9,485.7 984.9,482.4 							"/>
							<polygon fill-rule="evenodd" clip-rule="evenodd" fill="#FBB040" points="983.3,478 984.1,480.7 986.7,480.7 984.6,482.3 
								985.4,485 983.3,483.3 981.2,485 982,482.3 980,480.7 982.5,480.7 983.3,478 							"/>
						</g>
						<g>
							<polygon fill="#FBB040" points="977.8,490.9 974.6,490.9 973.6,487.6 972.7,490.9 969.5,490.9 972.1,492.9 971.1,496.1 
								973.7,494.1 976.2,496.1 975.2,492.9 							"/>
							<polygon fill-rule="evenodd" clip-rule="evenodd" fill="#FBB040" points="973.7,488.5 974.4,491.1 977,491.1 974.9,492.7 
								975.7,495.4 973.7,493.8 971.6,495.4 972.4,492.7 970.3,491.1 972.9,491.1 973.7,488.5 							"/>
						</g>
						<g>
							<polygon fill="#FBB040" points="984.3,499.7 983.3,496.4 982.4,499.7 979.2,499.7 981.8,501.7 980.8,504.9 983.3,502.9 
								985.9,504.9 984.9,501.7 987.5,499.7 							"/>
							<polygon fill-rule="evenodd" clip-rule="evenodd" fill="#FBB040" points="983.3,497.3 984.1,499.9 986.7,499.9 984.6,501.5 
								985.4,504.2 983.3,502.6 981.2,504.2 982,501.5 980,499.9 982.5,499.9 983.3,497.3 							"/>
						</g>
					</g>
				</g>
				<path fill="#FBB040" d="M1019.6,469.2c0,0-0.1,0-0.1,0l-22.1,4.4c-1.9,0-3.5,1.8-3.5,3.9v25.8c0,2.1,1.6,3.8,3.5,3.9l22.1,4.4
					c0,0,0.1,0,0.1,0c2,0,3.6-1.7,3.6-3.9V473C1023.2,470.9,1021.6,469.2,1019.6,469.2z"/>
				<path fill="#231F20" d="M1019.6,510.6l-22.2-4.4c-1.6,0-2.9-1.4-2.9-3.1v-25.8c0-1.7,1.3-3.1,2.9-3.1l22.2-4.4
					c1.6,0,2.9,1.4,2.9,3.1v34.5C1022.5,509.2,1021.2,510.6,1019.6,510.6z"/>
				<ellipse fill="#FBB040" cx="1008.5" cy="490.3" rx="12.1" ry="13.1"/>
				<ellipse fill="#FBB040" cx="1008.5" cy="490.3" rx="11.6" ry="12.5"/>
				<rect x="961.5" y="474.3" fill="#FBB040" width="2.4" height="34.9"/>
			</g>
			<g>
				<g>
					<g>
						<g>
							<polygon fill="#FBB040" points="1303.5,480.4 1306.6,480.4 1307.6,477.2 1308.6,480.4 1311.7,480.4 1309.2,482.4 
								1310.2,485.7 1307.6,483.7 1305.1,485.7 1306,482.4 							"/>
							<polygon fill-rule="evenodd" clip-rule="evenodd" fill="#FBB040" points="1307.6,478 1306.8,480.7 1304.2,480.7 
								1306.3,482.3 1305.5,485 1307.6,483.3 1309.7,485 1308.9,482.3 1311,480.7 1308.4,480.7 1307.6,478 							"/>
						</g>
						<g>
							<polygon fill="#FBB040" points="1313.2,490.9 1316.3,490.9 1317.3,487.6 1318.3,490.9 1321.4,490.9 1318.9,492.9 
								1319.8,496.1 1317.3,494.1 1314.7,496.1 1315.7,492.9 							"/>
							<polygon fill-rule="evenodd" clip-rule="evenodd" fill="#FBB040" points="1317.3,488.5 1316.5,491.1 1313.9,491.1 
								1316,492.7 1315.2,495.4 1317.3,493.8 1319.4,495.4 1318.6,492.7 1320.7,491.1 1318.1,491.1 1317.3,488.5 							"/>
						</g>
						<g>
							<polygon fill="#FBB040" points="1306.6,499.7 1307.6,496.4 1308.6,499.7 1311.7,499.7 1309.2,501.7 1310.2,504.9 
								1307.6,502.9 1305.1,504.9 1306,501.7 1303.5,499.7 							"/>
							<polygon fill-rule="evenodd" clip-rule="evenodd" fill="#FBB040" points="1307.6,497.3 1306.8,499.9 1304.2,499.9 
								1306.3,501.5 1305.5,504.2 1307.6,502.6 1309.7,504.2 1308.9,501.5 1311,499.9 1308.4,499.9 1307.6,497.3 							"/>
						</g>
					</g>
				</g>
				<path fill="#FBB040" d="M1271.3,469.2c0,0,0.1,0,0.1,0l22.1,4.4c1.9,0,3.5,1.8,3.5,3.9v25.8c0,2.1-1.6,3.8-3.5,3.9l-22.1,4.4
					c0,0-0.1,0-0.1,0c-2,0-3.6-1.7-3.6-3.9V473C1267.7,470.9,1269.3,469.2,1271.3,469.2z"/>
				<path fill="#231F20" d="M1271.3,510.6l22.2-4.4c1.6,0,2.9-1.4,2.9-3.1v-25.8c0-1.7-1.3-3.1-2.9-3.1l-22.2-4.4
					c-1.6,0-2.9,1.4-2.9,3.1v34.5C1268.5,509.2,1269.7,510.6,1271.3,510.6z"/>
				<ellipse fill="#FBB040" cx="1282.4" cy="490.3" rx="12.1" ry="13.1"/>
				<ellipse fill="#FBB040" cx="1282.4" cy="490.3" rx="11.6" ry="12.5"/>
				
					<rect x="1327.1" y="474.3" transform="matrix(-1 -4.960089e-11 4.960089e-11 -1 2656.5325 983.6359)" fill="#FBB040" width="2.4" height="34.9"/>
			</g>
		</g>
	</g>
</g>
</svg>
